<?xml version="1.0" encoding="utf-8"?>
<!-- Generator: Adobe Illustrator 25.0.0, SVG Export Plug-In . SVG Version: 6.00 Build 0)  -->
<svg version="1.1" id="레이어_1" xmlns="http://www.w3.org/2000/svg" xmlns:xlink="http://www.w3.org/1999/xlink" x="0px"
	 y="0px" viewBox="0 0 450.14 143.15" style="enable-background:new 0 0 450.14 143.15;" xml:space="preserve">
<style type="text/css">
	.st0{fill:#6BAD42;}
	.st1{fill:#1F855D;}
	.st2{fill:#18493A;}
</style>
<g>
	<path class="st0" d="M74.3,60.61c5.99-4.46,12.71-8.71,20.68-11.92C94.95,27.73,84.37,0,84.37,0L55.49,26.66
		c10.61,12.59,18.23,34.6,18.23,34.6L74.3,60.61z"/>
	<path class="st0" d="M78.45,86.13c1.23,26.16-14.81,57.01-14.81,57.01l8.64-2.22c19-24.43,22.71-71.08,22.71-71.08L78.45,86.13z"/>
	<g>
		<path class="st1" d="M136.44,47.77c0.41,0.2-0.96-0.47-0.55-0.25C135.89,47.52,135.48,47.3,136.44,47.77z"/>
		<path class="st1" d="M135.94,47.54c0,0-3-1.76-8.39-2.95c-1.29-0.32-2.59-0.58-3.88-0.78c-3.83-0.53-7.68-0.5-11.51-0.04
			c-11,1.11-25.25,5.93-41.54,19.37c-6.01,4.6-10.61,8.85-13.09,11.26c-25.35,23.05-41.43,23-49.97,19.67
			c-3.34-1.4-5.73-3.36-7.26-4.91L0,88.83c0,0,0.19,0.25,0.57,0.66c1.75,2.04,3.52,3.85,5.29,5.44l0.09,0.09l0.03,0.01
			c6.87,6.12,13.9,9.04,20.74,9.79c-0.43-1.45-0.83-2.95-1.2-4.51l8.13-2.07c0.09,2.13,0.29,4.32,0.64,6.58
			c23.34-2.49,42.67-26.68,42.67-26.68c32.22-38.43,54.19-32.62,59.48-30.38c-0.18-0.09-0.37-0.17-0.55-0.25
			C135.91,47.52,135.93,47.53,135.94,47.54z"/>
	</g>
	<path class="st2" d="M44.91,61.3l-16.69-8.17c-5.87,15.27-5.93,29.8-3.8,41.88c0.62,3.5,1.41,6.79,2.31,9.83
		c3.98,13.54,9.84,22.15,9.84,22.15h5.5c-4.33-7.84-6.71-15.28-7.77-22.16c-0.73-4.68-0.84-9.1-0.54-13.2
		C35.12,73.17,44.91,61.3,44.91,61.3z"/>
	<g>
		<path d="M190.49,97.55c-2.62,3.03-6.04,5.01-10.27,5.95v10.58h1.15c4.58,0,8.7-0.46,12.34-1.37c3.64-0.91,7.32-2.51,11.02-4.8
			V61.02h10.14v27.77h12.43v8.46h-12.43v34.02h-10.14v-14.54c-3,1.82-6.41,3.19-10.23,4.1c-3.82,0.91-8.2,1.37-13.13,1.37h-30.32
			v-8.11h19.04v-10.49c-4.41-0.88-7.98-2.85-10.71-5.91c-2.73-3.05-4.1-6.7-4.1-10.93c0-1.76,0.26-3.44,0.79-5.03
			c0.53-1.59,1.29-3.08,2.29-4.49h-8.11v-8.2h19.04c0.53-0.76,0.88-1.56,1.06-2.38c0.18-0.82,0.26-1.64,0.26-2.47
			c-0.06-0.76-0.19-1.54-0.4-2.34c-0.21-0.79-0.43-1.6-0.66-2.42l10.05-2.73c0.06,0.35,0.14,0.69,0.26,1.01
			c0.12,0.32,0.23,0.66,0.35,1.01c0.06,0.3,0.13,0.62,0.22,0.97c0.09,0.35,0.16,0.74,0.22,1.15c0.18,1.76,0.1,3.29-0.22,4.58
			c-0.32,1.29-0.9,2.5-1.72,3.61h20.36v8.2h-7.76c0.94,1.41,1.69,2.91,2.25,4.49c0.56,1.59,0.84,3.26,0.84,5.03
			C194.41,90.93,193.1,94.52,190.49,97.55z M181.98,80.23c-1.71-1.82-4.05-2.73-7.05-2.73c-3.06,0-5.45,0.91-7.18,2.73
			c-1.73,1.82-2.6,4-2.6,6.52c0,2.82,0.87,5.08,2.6,6.79c1.73,1.71,4.13,2.56,7.18,2.56c3,0,5.35-0.85,7.05-2.56
			c1.7-1.7,2.56-3.97,2.56-6.79C184.54,84.23,183.68,82.05,181.98,80.23z"/>
		<path d="M298.42,104.12h-67.87v-7.84h28.03v-4.76c-2.06-0.23-4-0.69-5.82-1.37c-1.82-0.68-3.41-1.57-4.76-2.69
			c-1.41-1.11-2.51-2.47-3.31-4.05c-0.79-1.59-1.19-3.5-1.19-5.73c0-1.35,0.16-2.6,0.49-3.75c0.32-1.15,0.78-2.19,1.37-3.13h-7.4
			v-7.84h20.45c0.23-1.06,0.29-2.12,0.18-3.17c-0.12-1.06-0.35-2.11-0.71-3.17l9.87-2.91c0.23,0.88,0.41,1.79,0.53,2.73
			c0.12,0.94,0.18,1.85,0.18,2.73c-0.06,0.71-0.15,1.38-0.26,2.03c-0.12,0.65-0.26,1.23-0.44,1.76h22.12v7.84h-7.58
			c0.59,0.94,1.06,1.98,1.41,3.13c0.35,1.15,0.53,2.4,0.53,3.75c0,2.23-0.43,4.16-1.28,5.77c-0.85,1.62-1.98,2.98-3.39,4.1
			c-1.41,1.18-3.06,2.09-4.94,2.73c-1.88,0.65-3.82,1.09-5.82,1.32v4.67h29.62V104.12z M283.56,129.86
			c-1.15,1.94-2.69,3.55-4.63,4.85c-1.88,1.35-4.1,2.35-6.65,3c-2.56,0.65-5.24,0.97-8.07,0.97c-2.88,0-5.6-0.32-8.15-0.97
			c-2.56-0.65-4.8-1.65-6.74-3c-1.94-1.29-3.47-2.91-4.58-4.85c-1.12-1.94-1.68-4.2-1.68-6.79c0-2.53,0.56-4.77,1.68-6.74
			c1.11-1.97,2.64-3.63,4.58-4.98c1.94-1.29,4.19-2.29,6.74-3c2.55-0.71,5.27-1.06,8.15-1.06c2.88,0,5.6,0.35,8.15,1.06
			c2.56,0.7,4.77,1.7,6.65,3c1.94,1.35,3.47,3.01,4.58,4.98c1.12,1.97,1.68,4.22,1.68,6.74
			C285.28,125.65,284.71,127.92,283.56,129.86z M271.93,117.29c-2.15-1.32-4.72-1.98-7.71-1.98c-3.06,0-5.66,0.66-7.8,1.98
			c-2.14,1.32-3.22,3.25-3.22,5.77c0,2.59,1.07,4.52,3.22,5.82c2.14,1.29,4.74,1.94,7.8,1.94c3,0,5.57-0.65,7.71-1.94
			c2.14-1.29,3.22-3.23,3.22-5.82C275.15,120.54,274.07,118.62,271.93,117.29z M271.67,73c-1.62-1.17-4.22-1.76-7.8-1.76
			c-3.64,0-6.26,0.59-7.84,1.76c-1.59,1.18-2.38,2.73-2.38,4.67c0,2,0.79,3.57,2.38,4.72c1.59,1.15,4.2,1.72,7.84,1.72
			c3.58,0,6.18-0.57,7.8-1.72c1.62-1.15,2.42-2.72,2.42-4.72C274.09,75.74,273.28,74.18,271.67,73z"/>
		<path d="M369.99,95.13c0,2.94-0.62,5.5-1.85,7.67c-1.23,2.17-2.91,4.05-5.03,5.64c1.35,1.59,2.42,3.38,3.22,5.38
			c0.79,2,1.19,4.14,1.19,6.43c0,2.76-0.57,5.27-1.72,7.54c-1.15,2.26-2.66,4.22-4.54,5.86c-1.94,1.64-4.17,2.91-6.7,3.79
			c-2.53,0.88-5.2,1.32-8.02,1.32c-2.88,0-5.6-0.44-8.15-1.32c-2.56-0.88-4.8-2.15-6.74-3.79c-1.88-1.59-3.38-3.52-4.5-5.82
			s-1.68-4.82-1.68-7.58c0-2.76,0.56-5.29,1.68-7.58c1.12-2.29,2.61-4.26,4.5-5.91c1.94-1.64,4.19-2.92,6.74-3.83
			c2.56-0.91,5.27-1.37,8.15-1.37c1.88,0,3.7,0.22,5.46,0.66c1.76,0.44,3.44,1.01,5.02,1.72c1-1.06,1.73-2.28,2.2-3.66
			c0.47-1.38,0.7-3.16,0.7-5.33v-3.97h-14.28v1.94c-2.82,1.76-5.9,3.14-9.25,4.14c-3.35,1-6.58,1.5-9.7,1.5h-9.08
			c-3.17,0-5.5-0.68-6.96-2.03c-1.47-1.35-2.2-3.44-2.2-6.26V61.37h9.87v10.31h17.54V61.37h9.78v6.17h14.28v-7.4h10.05V95.13z
			 M331.47,89.93c1.53-0.41,3-0.97,4.41-1.68V79.7h-17.54v8.55c0,0.88,0.16,1.49,0.49,1.81c0.32,0.32,0.89,0.48,1.72,0.48h6.26
			C328.38,90.54,329.94,90.34,331.47,89.93z M354.25,112.58c-1.97-1.94-4.54-2.91-7.71-2.91c-3.23,0-5.86,0.97-7.89,2.91
			c-2.03,1.94-3.04,4.5-3.04,7.67c0,3.17,1.01,5.7,3.04,7.58c2.03,1.88,4.66,2.82,7.89,2.82c3.17,0,5.74-0.94,7.71-2.82
			c1.97-1.88,2.95-4.41,2.95-7.58C357.21,117.08,356.22,114.52,354.25,112.58z M345.66,83.05h14.28v-7.58h-14.28V83.05z"/>
		<path d="M381.71,92.04h22.39c3.47,0,7.4-0.13,11.81-0.4c4.41-0.26,9.17-1.16,14.28-2.69l1.59,7.58c-3.17,1.29-6.89,2.16-11.15,2.6
			c-4.26,0.44-8.33,0.66-12.21,0.66v10.22h-10.14V99.8h-16.57V92.04z M419.48,83.89c-3.5,2.73-8.24,4.1-14.23,4.1
			c-6.17,0-10.98-1.38-14.41-4.14c-3.44-2.76-5.16-6.32-5.16-10.67c0-4.23,1.72-7.76,5.16-10.58c3.44-2.82,8.24-4.23,14.41-4.23
			c5.99,0,10.74,1.41,14.23,4.23c3.5,2.82,5.24,6.35,5.24,10.58C424.72,77.59,422.98,81.16,419.48,83.89z M403.57,125.36
			c0,0.88,0.2,1.53,0.62,1.94c0.41,0.41,1.03,0.62,1.85,0.62h20.71c3.53,0,6.79-0.16,9.78-0.49c3-0.32,6.17-1.01,9.52-2.07
			l1.94,7.67c-1.94,0.65-3.7,1.16-5.29,1.54c-1.59,0.38-3.17,0.69-4.76,0.93c-1.59,0.23-3.26,0.38-5.02,0.44
			c-1.76,0.06-3.79,0.09-6.08,0.09h-23.62c-3.17,0-5.6-0.68-7.27-2.03c-1.68-1.35-2.51-3.44-2.51-6.26v-14.81h10.14V125.36z
			 M412.07,68.2c-1.85-1.15-4.13-1.72-6.83-1.72c-2.76,0-5.07,0.57-6.92,1.72c-1.85,1.15-2.78,2.81-2.78,4.98
			c0,2.23,0.93,3.91,2.78,5.02c1.85,1.12,4.16,1.68,6.92,1.68c2.7,0,4.98-0.56,6.83-1.68c1.85-1.12,2.78-2.79,2.78-5.02
			C414.85,71.01,413.93,69.35,412.07,68.2z M445.61,116.55h-10.05v-6.61h-14.9v-7.4h14.9v-42.4h10.05V116.55z"/>
	</g>
	<g>
		<path d="M171.62,39.46c-1.87,0.23-3.82,0.38-5.87,0.46c-1.78,0.06-3.73,0.09-5.87,0.08c-2.14-0.01-3.28-0.02-3.42-0.02v-3.62
			c0.19,0,1.65,0.01,4.38,0.02c2.73,0.01,5.04-0.03,6.92-0.11c1.28-0.04,2.75-0.16,4.41-0.36c1.66-0.2,2.96-0.37,3.88-0.51v3.37
			C174.96,39,173.48,39.23,171.62,39.46z M171.38,31.38c-1.51,1.4-3.44,2.11-5.79,2.11c-2.35,0-4.28-0.7-5.77-2.11
			c-1.5-1.4-2.24-3.08-2.24-5.02c0-1.94,0.75-3.6,2.24-4.98c1.5-1.38,3.42-2.07,5.77-2.07c2.35,0,4.28,0.69,5.79,2.07
			c1.51,1.38,2.26,3.04,2.26,4.98C173.64,28.3,172.89,29.98,171.38,31.38z M168.54,23.84c-0.68-0.71-1.66-1.07-2.94-1.07
			c-1.24,0-2.2,0.35-2.89,1.05c-0.69,0.7-1.04,1.55-1.04,2.54c0,0.99,0.35,1.85,1.04,2.57c0.69,0.72,1.66,1.08,2.89,1.08
			c1.28,0,2.26-0.36,2.94-1.07c0.68-0.71,1.02-1.56,1.02-2.55C169.56,25.4,169.22,24.55,168.54,23.84z M177.02,45.06V17.82h4.12
			v27.24H177.02z"/>
		<path d="M183.98,42.77v-3.56h7.62v-3.56h-4.12v-9.94h16.07V22.8h-16.07v-3.56h20.21v10h-16.1v2.82h16.59v3.59h-3.9v3.56h6.93v3.56
			H183.98z M200.08,35.65h-4.3v3.56h4.3V35.65z"/>
		<path d="M233.36,32.46V26.7h-5.11v5.17h-14.08V18.78h4.12v3.44h5.88v-3.44h4.09v4.37h5.11v-5.32h4.12v14.64H233.36z M217.32,44.75
			V33.64h4.15v2.35h11.76v-2.35h4.15v11.11H217.32z M224.16,25.71h-5.88v2.66h5.88V25.71z M233.23,39.3h-11.76v2.07h11.76V39.3z"/>
		<path d="M255.88,20.5c1.5,1.41,2.24,3.13,2.24,5.15c0,1.98-0.75,3.68-2.24,5.11c-1.5,1.42-3.4,2.14-5.71,2.14
			c-2.31,0-4.22-0.71-5.71-2.14c-1.5-1.42-2.25-3.13-2.25-5.11c0-2.02,0.75-3.74,2.25-5.15c1.5-1.41,3.4-2.12,5.71-2.12
			C252.48,18.38,254.38,19.08,255.88,20.5z M246.23,44.44V35.4h4.21v5.48h16.72v3.56H246.23z M247.38,22.99
			c-0.66,0.74-0.99,1.63-0.99,2.66c0,1.01,0.33,1.89,0.99,2.63c0.66,0.74,1.59,1.11,2.79,1.11c1.2,0,2.12-0.37,2.77-1.11
			c0.65-0.74,0.98-1.62,0.98-2.63c0-1.03-0.33-1.92-0.98-2.66c-0.65-0.74-1.57-1.11-2.77-1.11
			C248.97,21.88,248.04,22.25,247.38,22.99z M262.3,37.48V17.82h4.12v19.66H262.3z"/>
		<path d="M301.15,33.85v-3.71h-4.98v2.04h-13.99V19.15h13.99v2.17h4.98v-3.5h4.12v16.03H301.15z M303.01,43.79
			c-1.82,1.07-4.49,1.61-8.02,1.61c-3.51,0-6.18-0.54-8-1.61c-1.83-1.07-2.74-2.43-2.74-4.06s0.91-2.98,2.74-4.05
			c1.83-1.07,4.49-1.61,8-1.61c3.53,0,6.2,0.54,8.02,1.61c1.82,1.07,2.72,2.42,2.72,4.05S304.82,42.72,303.01,43.79z M292.08,22.65
			h-5.82v6.04h5.82V22.65z M299.51,38.03c-1.09-0.45-2.59-0.68-4.49-0.68c-1.92,0-3.43,0.22-4.54,0.65
			c-1.1,0.43-1.66,1.01-1.66,1.73c0,0.66,0.55,1.23,1.66,1.72c1.1,0.48,2.62,0.73,4.54,0.73c1.9,0,3.39-0.23,4.49-0.7
			c1.09-0.46,1.64-1.04,1.64-1.72C301.15,39.07,300.6,38.49,299.51,38.03z M301.15,24.75h-4.98v1.95h4.98V24.75z"/>
		<path d="M323.67,20.5c1.5,1.41,2.24,3.13,2.24,5.15c0,1.98-0.75,3.68-2.24,5.11c-1.5,1.42-3.4,2.14-5.71,2.14
			s-4.21-0.71-5.71-2.14c-1.5-1.42-2.24-3.13-2.24-5.11c0-2.02,0.75-3.74,2.24-5.15c1.5-1.41,3.4-2.12,5.71-2.12
			S322.17,19.08,323.67,20.5z M314.03,44.44V35.4h4.21v5.48h16.72v3.56H314.03z M315.17,22.99c-0.66,0.74-0.99,1.63-0.99,2.66
			c0,1.01,0.33,1.89,0.99,2.63c0.66,0.74,1.59,1.11,2.79,1.11s2.12-0.37,2.77-1.11c0.65-0.74,0.98-1.62,0.98-2.63
			c0-1.03-0.32-1.92-0.98-2.66c-0.65-0.74-1.57-1.11-2.77-1.11S315.83,22.25,315.17,22.99z M330.09,37.48V17.82h4.12v19.66H330.09z"
			/>
		<path d="M353.33,39.46c-1.87,0.23-3.82,0.38-5.87,0.46c-1.78,0.06-3.73,0.09-5.87,0.08c-2.14-0.01-3.28-0.02-3.42-0.02v-3.62
			c0.19,0,1.65,0.01,4.38,0.02c2.73,0.01,5.04-0.03,6.92-0.11c1.28-0.04,2.75-0.16,4.41-0.36c1.66-0.2,2.96-0.37,3.88-0.51v3.37
			C356.67,39,355.19,39.23,353.33,39.46z M353.09,31.38c-1.51,1.4-3.44,2.11-5.79,2.11c-2.35,0-4.28-0.7-5.77-2.11
			c-1.5-1.4-2.24-3.08-2.24-5.02c0-1.94,0.75-3.6,2.24-4.98c1.5-1.38,3.42-2.07,5.77-2.07c2.35,0,4.28,0.69,5.79,2.07
			c1.51,1.38,2.26,3.04,2.26,4.98C355.35,28.3,354.6,29.98,353.09,31.38z M350.25,23.84c-0.68-0.71-1.66-1.07-2.94-1.07
			c-1.24,0-2.2,0.35-2.89,1.05c-0.69,0.7-1.04,1.55-1.04,2.54c0,0.99,0.35,1.85,1.04,2.57c0.69,0.72,1.66,1.08,2.89,1.08
			c1.28,0,2.26-0.36,2.94-1.07c0.68-0.71,1.02-1.56,1.02-2.55C351.27,25.4,350.93,24.55,350.25,23.84z M358.73,45.06V17.82h4.12
			v27.24H358.73z"/>
		<path d="M365.69,42.77v-3.56h7.62v-3.56h-4.12v-9.94h16.07V22.8h-16.07v-3.56h20.21v10h-16.1v2.82h16.59v3.59H386v3.56h6.93v3.56
			H365.69z M381.79,35.65h-4.3v3.56h4.3V35.65z"/>
		<path d="M406.71,40.01c-0.89-0.6-1.78-1.37-2.68-2.31c-0.9-0.94-1.55-1.89-1.97-2.86c-0.39,1.07-1.08,2.15-2.07,3.23
			c-0.99,1.08-1.93,1.93-2.82,2.55l-3.1-2.6c1.67-1.22,3.06-2.67,4.18-4.37c1.11-1.69,1.67-4.18,1.67-7.46v-1.92h-4.06V20.7h12.38
			v3.59h-4.06v1.92c0,3.2,0.48,5.53,1.44,6.98c0.96,1.45,2.22,2.78,3.79,3.98L406.71,40.01z M416.46,45.06V31.78h-2.23v12.04h-3.96
			V18.44h3.96v9.29h2.23v-9.91h3.96v27.24H416.46z"/>
		<path d="M435.64,32.35c-2.24,0.22-4.37,0.35-6.39,0.39h-5.26V19.31h14.18v3.59H428.1v6.19h3.22c1.09,0,2.67-0.1,4.72-0.31
			c2.05-0.21,3.51-0.38,4.38-0.53v3.53C439.47,31.95,437.88,32.14,435.64,32.35z M426.92,44.44v-9.26h4.18v5.7h16.13v3.56H426.92z
			 M446.42,29.34v8.17h-4.12V17.82h4.12v7.89h3.71v3.62H446.42z"/>
	</g>
</g>
</svg>
