<svg width="200" height="30" viewBox="0 0 200 30" fill="none" xmlns="http://www.w3.org/2000/svg">
<path d="M54.6807 14.9134C54.6807 16.0471 54.2011 16.9628 53.1982 16.9628H52.0208C51.5848 16.9628 51.5412 16.7884 51.5412 16.3087V13.1692C50.1458 14.5645 48.4016 14.8262 45.1749 14.8698H39.4191C37.3261 14.8698 37.2389 13.2564 37.2389 12.5151V7.58779C37.2389 6.49767 36.4976 6.23605 35.8871 5.8C35.2766 5.45116 35.5383 4.97151 35.9307 4.92791L39.9423 5.45116C40.4656 5.53837 40.4656 5.97442 40.4656 5.97442V12.0791C40.5092 13.1256 40.9016 13.2128 41.5557 13.2128H44.608C47.8348 13.2128 49.797 13.3 51.6284 11.643V5.45116C51.6284 4.36105 50.4075 3.96861 49.8842 3.66337C49.4046 3.35814 49.6662 2.74767 50.015 2.79128L54.2883 3.31454C54.8115 3.40174 54.7679 3.75058 54.7679 3.83779V8.54709L57.6022 8.32907C58.6051 8.24186 58.6487 10.4221 57.6022 10.4221H54.7679V14.9134H54.6807ZM52.6749 26.7302H42.0354C41.2069 26.7302 40.3784 26.1634 40.3784 24.9424V20.582C40.3784 19.7971 40.1168 19.4047 39.7243 19.0994C39.3319 18.8378 38.8086 18.6198 38.8086 18.4017C38.8086 18.1837 38.8522 17.9221 39.2011 17.9221H53.8522C54.2447 17.9221 54.3319 18.0529 54.3319 18.4453V24.9424C54.2883 26.1198 53.6342 26.7302 52.6749 26.7302ZM44.4772 25.3785H50.233C50.7127 25.3785 51.1051 24.986 51.1051 24.4628V19.4047H43.6051V24.4192C43.5615 25.0733 43.954 25.3785 44.4772 25.3785Z" fill="#005BAA"/>
<path d="M71.9473 9.593C71.9473 12.8197 69.2874 15.3052 65.8862 15.3052C62.4415 15.3052 59.8252 12.8197 59.8252 9.593C59.8252 6.45347 62.4415 3.9244 65.8862 3.9244C69.2874 3.88079 71.9473 6.45347 71.9473 9.593ZM65.8426 13.6046C67.5868 13.6046 68.8078 11.686 68.8078 9.593C68.8078 7.54358 67.5868 5.58137 65.8426 5.58137C64.1421 5.58137 62.9211 7.54358 62.9211 9.593C62.9211 11.6424 64.0985 13.6046 65.8426 13.6046ZM77.8339 22.1075C77.8339 25.4651 74.3892 27.2093 71.1188 27.2093C67.8485 27.2093 64.4037 25.4215 64.4037 22.1075C64.4037 18.75 67.8485 17.0058 71.1188 17.0058C74.3892 17.0058 77.8339 18.75 77.8339 22.1075ZM71.1188 25.7267C72.8194 25.7267 74.6072 24.2878 74.6072 22.1075C74.6072 19.8837 72.863 18.532 71.1188 18.532C69.331 18.532 67.6304 19.9273 67.6304 22.1075C67.6304 24.2878 69.331 25.7267 71.1188 25.7267ZM81.3223 6.40986C82.3252 6.32265 82.3688 8.32847 81.3223 8.32847H78.488V10.8139L81.3223 10.6395C82.3252 10.5523 82.3688 12.5581 81.3223 12.5581H78.488V14.9564C78.488 16.0901 77.9647 17.0058 77.0054 17.0058H75.8281C75.3921 17.0058 75.3485 16.8314 75.3485 16.3517V5.40695C75.3485 4.31684 74.1275 3.9244 73.6043 3.61916C73.1246 3.31393 73.3862 2.74707 73.7351 2.74707L78.0083 3.27033C78.5316 3.35754 78.5316 3.70637 78.5316 3.79358V6.58428L81.3223 6.40986Z" fill="#005BAA"/>
<path d="M95.4069 25.2905C95.4069 26.3806 94.8836 27.2963 93.9243 27.2963H92.7034C92.2673 27.2963 92.1801 27.1219 92.1801 26.6858V17.9649H84.1569C83.59 17.9649 83.4156 17.7905 83.154 17.4417L82.5435 16.526C82.1947 16.0027 82.5871 15.6539 83.0667 15.9155C83.9824 16.2643 84.1569 16.3079 85.3342 16.3079H103.823C105.305 16.3079 105.305 17.9213 103.823 17.9213H95.4505V25.2905H95.4069ZM85.5086 14.3457C84.4621 14.6074 84.1133 13.6481 84.9417 13.212C88.3865 11.3806 91.308 8.11027 92.1365 5.93004H87.1656C86.6423 5.93004 86.4243 5.84283 86.1627 5.49399L85.4214 4.49108C85.029 4.01143 85.465 3.61899 85.9447 3.88062C86.6859 4.18585 86.9912 4.27306 87.7324 4.27306H101.119C102.602 4.27306 102.602 5.93004 101.119 5.93004H95.9737C95.7121 6.71492 95.2324 7.4998 94.5348 8.28469H94.5784C95.4505 8.89515 96.8458 9.3748 97.5871 9.54922C98.5028 9.76724 99.3749 9.72364 99.8981 10.0289C101.075 10.7265 102.689 12.3399 102.34 13.3428C102.122 13.8661 101.599 14.1713 100.378 13.9097C98.5028 13.4736 95.9301 11.8603 93.3574 9.59283C91.09 11.8167 87.9941 13.6917 85.5086 14.3457Z" fill="#005BAA"/>
<path d="M107.006 8.15468C106.657 8.15468 106.613 8.11108 106.308 7.80585L105.523 6.62852C105.087 5.88724 105.61 5.66922 106.003 5.93085C106.788 6.32329 107.224 6.4105 108.052 6.4105H111.541V5.23317C111.497 4.36108 111.192 4.18666 110.799 3.92503C110.058 3.44538 110.276 2.87852 110.843 2.92213L114.201 3.22736C114.462 3.27096 114.68 3.40178 114.724 3.79422L114.637 6.4105H119.041C120.305 6.4105 120.262 8.15468 119.041 8.15468H116.991C118.081 9.11399 118.692 10.5093 118.692 11.9483C118.692 14.739 116.076 17.0936 113.067 17.0936C110.015 17.0936 107.442 14.739 107.442 11.9047C107.442 10.4657 108.096 9.11399 109.186 8.15468H107.006ZM114.462 18.8378C114.506 18.8378 114.898 18.8814 114.898 19.4483V23.1547C114.942 24.332 115.116 24.7681 116.381 24.7681H124.578C125.799 24.7681 125.799 26.3814 124.578 26.3814H113.939C113.067 26.3814 111.497 25.9018 111.497 23.9396V20.7128C111.497 19.8843 110.32 19.5355 109.927 19.3175C109.36 19.0122 109.666 18.489 110.015 18.489L114.462 18.8378ZM113.067 15.3495C114.288 15.3495 115.465 13.9541 115.465 11.9483C115.465 10.0297 114.244 8.41631 113.067 8.41631C111.846 8.41631 110.669 10.0297 110.669 11.9483C110.669 13.9977 111.89 15.3495 113.067 15.3495ZM127.849 9.41922C128.852 9.33201 128.895 11.4686 127.849 11.4686H125.102V18.4018C125.102 19.4919 124.578 20.4076 123.619 20.4076H122.573C122.137 20.4076 122.049 20.2332 122.049 19.7971V5.40759C122.049 4.31748 121.09 4.05585 120.567 3.70701C119.913 3.35817 120.131 2.6605 120.698 2.74771L124.578 3.27097C125.102 3.35817 125.102 3.70701 125.102 3.79422V9.55003L127.849 9.41922Z" fill="#005BAA"/>
<path d="M142.543 9.593C142.543 12.8197 139.883 15.3052 136.482 15.3052C133.037 15.3052 130.421 12.8197 130.421 9.593C130.421 6.45347 133.037 3.9244 136.482 3.9244C139.927 3.88079 142.543 6.45347 142.543 9.593ZM136.482 13.6046C138.226 13.6046 139.447 11.686 139.447 9.593C139.447 7.54358 138.226 5.58137 136.482 5.58137C134.781 5.58137 133.56 7.54358 133.56 9.593C133.56 11.6424 134.738 13.6046 136.482 13.6046ZM148.473 22.1075C148.473 25.4651 145.028 27.2093 141.758 27.2093C138.488 27.2093 135.043 25.4215 135.043 22.1075C135.043 18.75 138.488 17.0058 141.758 17.0058C145.028 17.0058 148.473 18.75 148.473 22.1075ZM141.758 25.7267C143.459 25.7267 145.246 24.2878 145.246 22.1075C145.246 19.8837 143.502 18.532 141.758 18.532C139.97 18.532 138.27 19.9273 138.27 22.1075C138.27 24.2878 139.97 25.7267 141.758 25.7267ZM151.918 6.40986C152.921 6.32265 152.964 8.32847 151.918 8.32847H149.084V10.8139L151.918 10.6395C152.921 10.5523 152.964 12.5581 151.918 12.5581H149.084V14.9564C149.084 16.0901 148.56 17.0058 147.601 17.0058H146.424C145.988 17.0058 145.944 16.8314 145.944 16.3517V5.40695C145.944 4.31684 144.723 3.9244 144.2 3.61916C143.72 3.31393 143.982 2.74707 144.331 2.74707L148.604 3.27033C149.127 3.35754 149.127 3.70637 149.127 3.79358V6.58428L151.918 6.40986Z" fill="#005BAA"/>
<path d="M166.919 13.3866C166.919 15 165.916 15.5232 164.695 15.5232H158.154C156.89 15.5232 155.931 15 155.931 13.3866V7.02033C155.931 5.93021 155.189 5.66858 154.579 5.23254C153.968 4.8837 154.186 4.36044 154.622 4.31684L158.59 4.84009C159.114 4.9273 159.114 5.36335 159.114 5.40695V8.45928H163.736V6.54067C163.736 5.40695 162.951 5.18893 162.384 4.75288C161.73 4.40405 161.992 3.9244 162.428 3.88079L166.396 4.40405C166.919 4.49126 166.919 4.84009 166.919 4.9273V6.84591C167.268 6.93312 167.747 7.28195 168.532 7.28195H170.931V5.40695C170.931 4.31684 169.71 3.9244 169.186 3.61916C168.75 3.31393 168.968 2.74707 169.317 2.74707L173.59 3.27033C174.114 3.35754 174.07 3.70637 174.07 3.79358V15.0872C174.07 16.1773 173.59 17.1366 172.587 17.1366H171.454C171.018 17.1366 170.974 16.9622 170.974 16.4825V13.2994H168.009C167.747 13.2994 167.66 13.2994 167.486 13.0378L166.962 12.5145V13.3866H166.919ZM159.07 10.2471V13.0378C159.07 13.7354 159.07 14.0843 160.073 14.0843H162.689C163.692 14.0843 163.692 13.6046 163.692 12.7325V10.2471H159.07ZM172.893 22.1511C172.893 25.4651 169.579 27.2093 166.352 27.2093C163.082 27.2093 159.811 25.4651 159.811 22.1511C159.811 18.7936 163.125 17.093 166.352 17.093C169.579 17.093 172.893 18.8372 172.893 22.1511ZM166.352 25.7267C168.009 25.7267 169.71 24.3314 169.71 22.1511C169.71 19.9709 167.965 18.6192 166.352 18.6192C164.608 18.6192 162.951 19.9709 162.951 22.1511C162.951 24.3314 164.608 25.7267 166.352 25.7267ZM168.532 11.686H170.931V8.98254H167.965C167.704 8.98254 167.617 8.98253 167.442 8.72091L166.919 8.11044V11.25C167.268 11.2936 167.704 11.686 168.532 11.686Z" fill="#005BAA"/>
<path d="M179.695 14.6954C178.91 14.6954 178.779 14.521 178.474 14.2157L177.689 13.2564C177.471 12.7768 177.733 12.2971 178.212 12.5588C178.954 12.9512 179.346 13.0384 180.611 13.0384H187.064C190.77 13.0384 191.817 12.9512 193.125 12.6024C193.823 12.4279 193.91 13.082 193.387 13.4308C192.297 14.1721 190.596 14.739 187.326 14.739H186.497V17.0064C186.497 18.0965 186.018 18.7942 185.015 18.7942H183.794C183.358 18.7942 183.27 18.6198 183.27 18.1402V14.7826H179.695V14.6954ZM190.552 7.71864C190.552 10.2041 188.154 11.9483 185.145 11.9483C182.18 11.9483 179.782 10.2477 179.782 7.71864C179.782 5.14596 182.18 3.48899 185.145 3.48899C188.154 3.48899 190.552 5.18957 190.552 7.71864ZM186.018 19.7099C186.061 19.7099 186.454 19.7535 186.454 20.3204V23.3727C186.497 24.55 186.672 24.9861 187.936 24.9861H196.919C198.14 24.9861 198.14 26.425 196.919 26.425H185.669C184.797 26.425 183.227 25.9454 183.227 23.9832V21.5849C183.227 20.7564 182.05 20.4076 181.657 20.1896C181.09 19.9279 181.395 19.3611 181.744 19.3611L186.018 19.7099ZM185.189 10.3349C186.366 10.3349 187.587 9.28841 187.587 7.71864C187.587 6.14887 186.366 5.05876 185.189 5.05876C184.012 5.05876 182.834 6.14887 182.834 7.71864C182.791 9.2448 183.968 10.3349 185.189 10.3349ZM194.433 5.40759C194.433 4.31748 193.474 4.05585 192.907 3.70701C192.297 3.35817 192.471 2.6605 193.038 2.74771L197.006 3.27097C197.529 3.35817 197.486 3.70701 197.486 3.79422V18.6198C197.486 19.7099 197.006 20.6256 196.047 20.6256H194.956C194.52 20.6256 194.433 20.4512 194.433 20.0151V17.9657H190.116C189.898 17.9657 189.768 17.9221 189.593 17.7041L188.852 16.7884C188.677 16.4832 188.634 16.1779 188.808 16.0035C189.157 15.6547 189.724 16.3524 190.77 16.3524H194.433V5.40759Z" fill="#005BAA"/>
<path d="M5.18895 21.6279L4.6657 20.7994L4.05523 21.1483C3.96802 21.1919 3.88082 21.2791 3.83721 21.2791C3.83721 21.3227 3.79361 21.3227 3.79361 21.3663C3.79361 21.4099 3.79361 21.4535 3.83721 21.4971L3.88081 21.5407L3.83721 21.5843L3.35756 20.7994L3.40116 20.7558L3.44477 20.7994C3.48837 20.843 3.48837 20.8866 3.57558 20.8866C3.61919 20.8866 3.66279 20.9302 3.7064 20.8866C3.75 20.8866 3.83721 20.843 3.92442 20.7994L5.27616 20.0145C5.36337 19.9709 5.45058 19.9273 5.49419 19.8837C5.49419 19.8401 5.53779 19.8401 5.53779 19.7965C5.53779 19.7529 5.53779 19.7093 5.49419 19.6657L5.45058 19.6221L5.49419 19.5785L5.97384 20.3634L5.93023 20.407L5.88663 20.3634C5.84302 20.2762 5.79942 20.2326 5.71221 20.2326C5.66861 20.2326 5.5814 20.2762 5.45058 20.3198L4.84012 20.7122L5.36337 21.5407L5.97384 21.1919C6.06105 21.1483 6.14826 21.061 6.19186 21.061C6.19186 21.0174 6.23547 21.0174 6.23547 20.9738C6.23547 20.9302 6.23547 20.8866 6.19186 20.843L6.14826 20.7558L6.19186 20.7122L6.67151 21.4971L6.5407 21.5407L6.49709 21.4971C6.45349 21.4099 6.40989 21.3663 6.32268 21.3663C6.27907 21.3663 6.19186 21.4099 6.06105 21.4971L4.7093 22.282C4.62209 22.3256 4.53488 22.4128 4.49128 22.4128C4.49128 22.4564 4.44768 22.4564 4.44768 22.5C4.44768 22.5436 4.44768 22.5872 4.49128 22.6308L4.53488 22.6744L4.49128 22.718L4.01163 21.9331L4.05523 21.8895L4.14244 21.9767C4.18605 22.0204 4.18605 22.064 4.27326 22.064C4.31686 22.064 4.36047 22.064 4.40407 22.064C4.44768 22.064 4.53489 22.0204 4.62209 21.9767L5.18895 21.6279Z" fill="black"/>
<path d="M4.18605 18.6192L4.49128 19.4041H4.88372C4.97093 19.4041 5.05814 19.4041 5.10175 19.4041C5.14535 19.4041 5.14535 19.3605 5.18896 19.3169C5.18896 19.2733 5.18896 19.2297 5.18896 19.0988L5.23256 19.0552L5.45058 19.7093H5.40698C5.36338 19.6221 5.31977 19.5785 5.27617 19.5785C5.18896 19.5349 5.05814 19.5349 4.88372 19.5349L2.7471 19.4913L2.70349 19.4041L4.36047 18.0523C4.49128 17.9215 4.57849 17.8779 4.6221 17.7907C4.6657 17.7471 4.6657 17.6599 4.6221 17.5727H4.6657L4.97093 18.3576L4.92733 18.4012C4.88372 18.314 4.84012 18.2704 4.84012 18.2704C4.79651 18.2704 4.75291 18.2704 4.70931 18.2704C4.6657 18.2704 4.57849 18.3576 4.49128 18.4012L4.18605 18.6192ZM4.09884 18.7064L3.31396 19.3605L4.36047 19.4041L4.09884 18.7064Z" fill="black"/>
<path d="M2.31105 18.0959L2.22384 17.5291L3.79361 16.0029L2.44186 16.2209C2.31105 16.2645 2.18023 16.2645 2.18023 16.3081C2.13663 16.3517 2.13663 16.439 2.13663 16.4826V16.5698H2.09303L1.96221 15.8285H2.00582V15.9157C2.00582 16.0029 2.04942 16.0465 2.13663 16.0901C2.18023 16.0901 2.26744 16.0901 2.39826 16.0901L4.40407 15.7849V15.8285L2.70349 17.4855L4.18605 17.2674C4.36047 17.2238 4.44768 17.2238 4.44768 17.1802C4.49128 17.1366 4.49128 17.0494 4.49128 17.0058V16.9186H4.53489L4.6657 17.6599H4.6221V17.5727C4.6221 17.4855 4.57849 17.4419 4.49128 17.3983C4.44768 17.3983 4.36047 17.3983 4.22965 17.3983L2.57268 17.6599C2.48547 17.7471 2.44186 17.7907 2.44186 17.8343C2.44186 17.8779 2.39826 17.9215 2.39826 17.9651C2.39826 18.0087 2.39826 18.0523 2.39826 18.0959H2.31105Z" fill="black"/>
<path d="M2.00582 13.9971L2.04942 13.2558H2.09302V13.2994C2.09302 13.343 2.09302 13.3866 2.13663 13.4302C2.18023 13.4738 2.18023 13.5174 2.26744 13.561C2.31105 13.6047 2.39826 13.6483 2.52907 13.7355L3.44477 14.3023L4.05523 14.3459C4.22965 14.3459 4.31686 14.3459 4.36047 14.3023C4.40407 14.2587 4.44768 14.2151 4.44768 14.1279V14.0407H4.49128L4.44768 14.9564H4.40407V14.8692C4.40407 14.782 4.36047 14.6948 4.31686 14.6948C4.27326 14.6512 4.18605 14.6512 4.05523 14.6512L3.40116 14.564L2.35465 15.0872C2.22384 15.1308 2.13663 15.1744 2.13663 15.218C2.09302 15.2616 2.04942 15.3052 2.00582 15.3488C2.00582 15.3488 2.00582 15.3924 1.96221 15.436H1.91861L1.96221 14.564H2.00582V14.6076C2.00582 14.6512 2.00582 14.6948 2.04942 14.7384C2.09302 14.782 2.09302 14.782 2.18023 14.8256C2.22384 14.8256 2.31105 14.782 2.39826 14.7384L3.18314 14.3459L2.44186 13.9099C2.31105 13.8227 2.26744 13.8227 2.18023 13.8227C2.13663 13.8227 2.13663 13.8227 2.09302 13.8227C2.04942 13.8227 2.04942 13.8663 2.04942 13.8663C2.04942 13.9099 2.00582 13.9535 2.00582 13.9971Z" fill="black"/>
<path d="M3.92442 12.2093L3.75 12.9942L4.09884 13.2122C4.18605 13.2558 4.22965 13.2994 4.27326 13.2994C4.31686 13.2994 4.36047 13.2994 4.36047 13.2558C4.40407 13.2122 4.44768 13.1686 4.44768 13.0814H4.49128L4.36047 13.7355H4.31686C4.31686 13.6483 4.31686 13.6047 4.27326 13.561C4.22965 13.5174 4.14244 13.4302 3.96802 13.2994L2.18023 12.1657V12.0785L4.31686 11.7733C4.49128 11.7296 4.62209 11.7297 4.6657 11.686C4.7093 11.6424 4.75291 11.5988 4.79651 11.5116H4.84012L4.6657 12.3401H4.62209C4.62209 12.2529 4.62209 12.2093 4.62209 12.1657C4.62209 12.1221 4.57849 12.1221 4.53488 12.1221C4.49128 12.1221 4.40407 12.1221 4.27326 12.1221L3.92442 12.2093ZM3.79361 12.2529L2.74709 12.3837L3.61919 12.9506L3.79361 12.2529Z" fill="black"/>
<path d="M2.57268 10.8576L2.7907 10.3343L4.97093 9.85465L3.7064 9.3314C3.57558 9.28779 3.48838 9.24419 3.40117 9.24419C3.35756 9.24419 3.27035 9.28779 3.27035 9.375L3.22675 9.46221L3.18314 9.41861L3.48838 8.72093L3.53198 8.76454L3.48838 8.85175C3.44477 8.93895 3.44477 9.02616 3.48838 9.06977C3.53198 9.11337 3.57558 9.15698 3.7064 9.20058L5.5814 9.98547L5.53779 10.0291L3.27035 10.5087L4.6221 11.0756C4.75291 11.1192 4.84012 11.1628 4.92733 11.1628C4.97093 11.1628 5.05814 11.1192 5.05814 11.032L5.10175 10.9448L5.14535 10.9884L4.84012 11.686L4.79652 11.6424L4.84012 11.5552C4.88372 11.468 4.88372 11.3808 4.84012 11.3372C4.79652 11.2936 4.75291 11.25 4.6221 11.2064L3.09593 10.5523C2.96512 10.5959 2.87791 10.6395 2.83431 10.6395C2.7907 10.6395 2.7471 10.6831 2.70349 10.7267C2.65989 10.7704 2.65989 10.7704 2.61628 10.8576H2.57268Z" fill="black"/>
<path d="M4.79651 6.75872L5.45058 7.15116V7.19477C5.27616 7.15116 5.10174 7.10756 4.97093 7.15116C4.79651 7.19477 4.62209 7.28198 4.53488 7.45639C4.36046 7.67442 4.36046 7.93605 4.49128 8.15407C4.57849 8.37209 4.75291 8.54651 4.97093 8.72093C5.14535 8.85174 5.36337 8.93895 5.53779 8.98256C5.75581 9.02616 5.93023 9.02616 6.06105 8.93895C6.19186 8.89535 6.32267 8.80814 6.40988 8.67732C6.45349 8.63372 6.49709 8.54651 6.49709 8.4593C6.5407 8.37209 6.5407 8.32849 6.5407 8.24128L5.97384 7.84884C5.88663 7.76163 5.79942 7.76163 5.75581 7.71802C5.71221 7.71802 5.6686 7.71802 5.625 7.71802C5.5814 7.71802 5.53779 7.76163 5.49419 7.84884H5.45058L5.93023 7.15116L5.97384 7.19477L5.93023 7.23837C5.88663 7.32558 5.88663 7.36919 5.88663 7.45639C5.93023 7.5 5.97384 7.5436 6.10465 7.63081L6.75872 8.02326C6.75872 8.15407 6.71512 8.28488 6.67151 8.4157C6.62791 8.54651 6.5843 8.63372 6.49709 8.76453C6.23546 9.11337 5.93023 9.28779 5.58139 9.28779C5.31977 9.28779 5.05814 9.20058 4.79651 9.06977C4.62209 8.93895 4.49128 8.80814 4.36047 8.63372C4.22965 8.4157 4.18605 8.19767 4.18605 7.97965C4.18605 7.80523 4.27326 7.63081 4.40407 7.45639C4.44767 7.41279 4.49128 7.32558 4.53488 7.28198C4.57849 7.23837 4.6657 7.19477 4.75291 7.10756C4.79651 7.06395 4.84012 7.06395 4.84012 7.02035V6.97674C4.84012 6.93314 4.79651 6.93314 4.75291 6.88953L4.79651 6.75872Z" fill="black"/>
<path d="M8.37209 6.71511L6.40989 5.71221L7.41279 6.93314C7.5 7.06395 7.58721 7.10755 7.63082 7.10755C7.67442 7.10755 7.76163 7.10755 7.80523 7.06395L7.84884 7.02035L7.89244 7.06395L7.28198 7.5436L7.23837 7.5L7.28198 7.45639C7.36919 7.41279 7.36919 7.32558 7.36919 7.28197C7.36919 7.23837 7.32558 7.15116 7.23837 7.06395L6.32268 5.79942C6.23547 5.71221 6.19186 5.6686 6.14826 5.625C6.10465 5.625 6.06105 5.58139 6.01744 5.625C5.97384 5.625 5.93023 5.6686 5.84302 5.71221L5.79942 5.6686L6.27907 5.27616L8.06686 6.23546L7.4564 4.31686L7.93605 3.92442L7.97965 3.96802L7.93605 4.01162C7.84884 4.05523 7.84884 4.14244 7.84884 4.18604C7.84884 4.22965 7.89244 4.31686 7.97965 4.40407L8.98256 5.58139C9.06977 5.71221 9.15698 5.75581 9.20058 5.75581C9.24419 5.75581 9.3314 5.75581 9.375 5.71221L9.41861 5.6686L9.46221 5.71221L8.72093 6.27907H8.76454L8.80814 6.23546C8.89535 6.19186 8.89535 6.10465 8.89535 6.06104C8.89535 6.01744 8.85175 5.93023 8.76454 5.84302L7.71802 4.62209L8.37209 6.71511Z" fill="black"/>
<path d="M9.02616 3.57558L9.46221 4.40407L9.85465 4.18605C9.98547 4.14244 10.0291 4.05523 10.0291 4.01163C10.0727 3.92442 10.0291 3.83721 9.98546 3.7064L10.0291 3.66279L10.4215 4.40407L10.3779 4.44768C10.2907 4.36047 10.2471 4.31686 10.2471 4.27326C10.2035 4.22965 10.1599 4.22965 10.1163 4.22965C10.0727 4.22965 9.98547 4.22965 9.89826 4.27326L9.50581 4.49128L9.89826 5.18896C9.94186 5.27616 9.98546 5.31977 9.98546 5.36337C9.98546 5.36337 10.0291 5.40698 10.0727 5.40698C10.1163 5.40698 10.1163 5.40698 10.2035 5.36337L10.5087 5.18896C10.5959 5.14535 10.6831 5.10175 10.7267 5.05814C10.7703 5.01454 10.814 4.97093 10.814 4.88372C10.8576 4.79651 10.8576 4.6657 10.814 4.49128L10.8576 4.44768L10.9884 5.05814L9.54942 5.84302L9.50581 5.79942L9.59302 5.75582C9.63663 5.71221 9.68023 5.71221 9.72384 5.66861C9.72384 5.625 9.76744 5.5814 9.72384 5.5814C9.72384 5.53779 9.68023 5.45058 9.63663 5.36337L8.89535 4.01163C8.80814 3.88082 8.76453 3.79361 8.72093 3.79361C8.67733 3.75 8.59012 3.79361 8.50291 3.83721L8.4157 3.88082L8.37209 3.83721L9.85465 3.09593L10.1163 3.53198L10.0727 3.57558C9.98547 3.48837 9.94186 3.40116 9.89826 3.35756C9.85465 3.22675 9.81105 3.22675 9.76744 3.22675C9.72384 3.22675 9.63663 3.27035 9.54942 3.31396L9.02616 3.57558Z" fill="black"/>
<path d="M11.1192 4.97093V4.92733L11.2064 4.88372C11.2936 4.84012 11.3372 4.79651 11.3808 4.75291C11.3808 4.7093 11.3808 4.62209 11.3372 4.49128L10.8576 3.05233C10.814 2.92151 10.7704 2.8343 10.7267 2.7907C10.6831 2.74709 10.5959 2.74709 10.5087 2.7907H10.4215V2.74709L11.2936 2.48547C11.5552 2.39826 11.8169 2.35465 11.9913 2.35465C12.1657 2.39826 12.3401 2.48547 12.5145 2.61628C12.689 2.74709 12.7762 2.96512 12.8634 3.18314C12.9506 3.48837 12.9506 3.79361 12.8634 4.05523C12.7326 4.36047 12.4709 4.57849 12.0785 4.6657L11.1192 4.97093ZM11.686 4.62209C11.8169 4.62209 11.9477 4.57849 12.0349 4.57849C12.2529 4.49128 12.4273 4.36047 12.5581 4.14244C12.6453 3.92442 12.6453 3.66279 12.5581 3.31395C12.4709 3.00872 12.2965 2.7907 12.0785 2.65988C11.8605 2.52907 11.6424 2.48547 11.3808 2.57268C11.2936 2.61628 11.2064 2.65989 11.0756 2.70349L11.686 4.62209Z" fill="black"/>
<path d="M14.1715 4.18605V4.22965L13.2558 4.36046V4.31686H13.343C13.4302 4.31686 13.4738 4.27326 13.5174 4.18605C13.5174 4.14244 13.5174 4.05523 13.5174 3.92442L13.2558 2.44186C13.2558 2.31105 13.2122 2.22384 13.2122 2.22384C13.2122 2.18023 13.1686 2.18023 13.125 2.18023C13.0814 2.18023 13.0378 2.13663 12.9942 2.18023H12.907V2.13663L13.8227 2.00581V2.04942H13.7355C13.6483 2.04942 13.6046 2.09302 13.561 2.18023C13.561 2.22384 13.561 2.31105 13.561 2.44186L13.8227 3.96802C13.8227 4.09884 13.8663 4.18605 13.8663 4.18605C13.8663 4.22965 13.9099 4.22965 13.9535 4.27326C13.9971 4.27326 14.0407 4.31686 14.0843 4.27326L14.1715 4.18605Z" fill="black"/>
<path d="M15.9593 1.74419L16.0465 2.52907H16.0029C15.9157 2.26744 15.8285 2.13663 15.6977 2.00581C15.5669 1.9186 15.436 1.875 15.2616 1.875C15.1308 1.875 15 1.9186 14.8692 2.00581C14.7384 2.09302 14.6512 2.22384 14.6076 2.39826C14.564 2.57267 14.5203 2.7907 14.5203 3.05233C14.5203 3.27035 14.564 3.44477 14.6512 3.61919C14.7384 3.7936 14.8256 3.88081 14.9564 3.96802C15.0872 4.05523 15.218 4.09884 15.3924 4.09884C15.5233 4.09884 15.6541 4.05523 15.7849 3.96802C15.8721 3.88081 16.0029 3.75 16.1337 3.57558L16.1773 3.61919C16.0901 3.83721 15.9593 4.01163 15.8285 4.09884C15.6977 4.18605 15.5233 4.27326 15.3052 4.27326C14.9564 4.27326 14.6512 4.14244 14.4331 3.88081C14.2587 3.66279 14.2151 3.40116 14.1715 3.13954C14.1715 2.92151 14.2151 2.70349 14.3023 2.48547C14.3895 2.26744 14.5204 2.13663 14.6948 2.00581C14.8692 1.875 15.0436 1.8314 15.2616 1.8314C15.436 1.8314 15.5669 1.875 15.7413 1.96221C15.7849 2.00581 15.8285 2.00581 15.8285 2.00581C15.8721 2.00581 15.8721 2.00581 15.9157 1.96221C15.9593 1.91861 15.9593 1.875 15.9593 1.8314V1.74419Z" fill="black"/>
<path d="M17.7035 3.57558L16.875 3.44476L16.657 3.7936C16.6134 3.88081 16.5698 3.92442 16.5698 3.96802C16.5698 4.01163 16.5698 4.05523 16.6134 4.05523C16.657 4.09883 16.7006 4.09883 16.7878 4.14244V4.18604L16.0901 4.09883V4.05523C16.1773 4.05523 16.2645 4.05523 16.2645 4.01163C16.3081 3.96802 16.3953 3.88081 16.4826 3.70639L17.5727 1.9186H17.6599L18.0959 3.96802C18.1395 4.14244 18.1831 4.22965 18.2267 4.31686C18.2704 4.36046 18.314 4.40407 18.4012 4.44767V4.49128L17.5291 4.36046V4.31686C17.6163 4.31686 17.6599 4.31686 17.7035 4.31686C17.7471 4.27325 17.7471 4.27325 17.7471 4.22965C17.7471 4.18604 17.7471 4.09883 17.7035 3.96802V3.57558ZM17.6599 3.44476L17.4419 2.44186L16.9186 3.31395L17.6599 3.44476Z" fill="black"/>
<path d="M20.2326 4.49128L19.8837 5.05814L18.2703 4.49128V4.44767L18.3576 4.49128C18.4448 4.53488 18.532 4.49128 18.5756 4.44767C18.6192 4.40407 18.6628 4.36046 18.7064 4.22965L19.2296 2.79069C19.2733 2.65988 19.3169 2.57267 19.2733 2.52907C19.2296 2.48546 19.186 2.44186 19.1424 2.39825L19.0552 2.35465L19.0988 2.31104L20.0145 2.61628L19.9709 2.65988C19.8837 2.61628 19.7965 2.61628 19.7529 2.61628C19.7093 2.61628 19.6657 2.65988 19.6221 2.65988C19.5785 2.70348 19.5349 2.79069 19.4913 2.92151L18.968 4.31686C18.9244 4.40407 18.9244 4.49128 18.9244 4.53488C18.9244 4.57848 18.9244 4.57849 18.968 4.62209C18.968 4.62209 19.0552 4.66569 19.186 4.7093L19.3169 4.7529C19.4913 4.79651 19.5785 4.84011 19.6657 4.84011C19.7529 4.84011 19.7965 4.79651 19.8837 4.7529C20.0581 4.66569 20.1453 4.57848 20.2326 4.49128Z" fill="black"/>
<path d="M22.1948 3.7064L21.7151 4.49128L22.064 4.7093C22.1512 4.75291 22.1948 4.75291 22.282 4.75291C22.3256 4.75291 22.4128 4.6657 22.5 4.57849L22.5436 4.62209L22.1076 5.31977L22.0204 5.23256C22.064 5.14535 22.1076 5.10175 22.1076 5.05814C22.1076 5.01454 22.1076 4.97093 22.064 4.92733C22.064 4.88372 22.0204 4.84012 21.9331 4.79651L21.5843 4.57849L21.1919 5.23256C21.1483 5.31977 21.1047 5.40698 21.061 5.45058C21.061 5.49419 21.061 5.49419 21.061 5.53779C21.1047 5.5814 21.1047 5.625 21.1483 5.625L21.2355 5.66861L21.1919 5.71221L20.407 5.23256L20.4506 5.18895L20.5378 5.23256C20.625 5.27616 20.6686 5.27616 20.7558 5.27616C20.7994 5.27616 20.843 5.18896 20.9302 5.05814L21.7587 3.75C21.8023 3.66279 21.8459 3.57558 21.8895 3.53198C21.8895 3.48837 21.8895 3.48837 21.8895 3.44477C21.8459 3.40116 21.8459 3.35756 21.8023 3.31395L21.7151 3.27035L21.7587 3.22675L23.1541 4.05523L22.8924 4.49128L22.8488 4.44768C22.8924 4.36047 22.8924 4.27326 22.8924 4.18605C22.8924 4.14244 22.8924 4.05523 22.8488 4.01163C22.8052 3.96802 22.7616 3.92442 22.6744 3.83721L22.1948 3.7064Z" fill="black"/>
<path d="M24.375 5.01454C24.593 5.18895 24.6802 5.45058 24.6802 5.75581C24.6802 6.06105 24.5494 6.36628 24.3314 6.62791C24.0698 6.88954 23.8081 7.06395 23.5029 7.10756C23.1977 7.15116 22.8924 7.06395 22.6744 6.88954C22.4564 6.71512 22.3256 6.45349 22.3256 6.14826C22.3256 5.84302 22.4564 5.53779 22.6744 5.27616C22.936 4.97093 23.2413 4.84012 23.5465 4.79651C23.939 4.75291 24.157 4.84012 24.375 5.01454ZM24.2878 5.10174C24.157 4.97093 23.9826 4.92733 23.7645 4.97093C23.5029 5.01454 23.2849 5.18895 23.0233 5.49419C22.7616 5.79942 22.6308 6.06105 22.5872 6.32268C22.5872 6.49709 22.6308 6.67151 22.7616 6.80233C22.936 6.93314 23.1105 6.97674 23.3285 6.93314C23.5465 6.88954 23.7645 6.71512 24.0262 6.45349C24.2878 6.14826 24.4622 5.88663 24.4622 5.625C24.5058 5.36337 24.4622 5.23256 24.2878 5.10174Z" fill="black"/>
<path d="M26.3808 7.23838L26.4244 7.19477L26.9041 7.76163L26.8169 7.84884L26.7733 7.80524C26.7297 7.76163 26.6424 7.71803 26.5552 7.71803C26.5116 7.71803 26.4244 7.76163 26.3372 7.84884L25.5523 8.4157C25.3779 8.54652 25.2035 8.67733 25.0727 8.72093C24.9419 8.76454 24.811 8.76454 24.6366 8.72093C24.4622 8.67733 24.3314 8.59012 24.2006 8.4157C24.0698 8.24128 23.9826 8.06686 23.9826 7.93605C23.9826 7.80524 24.0262 7.63082 24.1134 7.5C24.157 7.41279 24.3314 7.28198 24.5494 7.10756L25.2907 6.5407C25.4215 6.45349 25.4651 6.36628 25.5087 6.32268C25.5087 6.27907 25.5087 6.19186 25.4651 6.14826L25.4215 6.10466L25.4651 6.06105L26.032 6.75872L25.9884 6.80233L25.9448 6.71512C25.9012 6.62791 25.814 6.62791 25.7703 6.62791C25.7267 6.62791 25.6395 6.67152 25.5523 6.75872L24.7238 7.36919C24.6366 7.41279 24.5494 7.5 24.4622 7.58721C24.375 7.67442 24.3314 7.76163 24.2878 7.80524C24.2006 7.89245 24.2006 7.97966 24.2006 8.06686C24.2006 8.15407 24.2442 8.24128 24.3314 8.32849C24.4186 8.4157 24.5058 8.50291 24.6366 8.54652C24.7674 8.59012 24.8983 8.59012 24.9855 8.54652C25.1163 8.50291 25.2471 8.4157 25.4651 8.28489L26.25 7.71803C26.3808 7.63082 26.4244 7.54361 26.468 7.5C26.468 7.4564 26.468 7.36919 26.4244 7.32559L26.3808 7.23838Z" fill="black"/>
<path d="M27.0349 8.02325L27.2965 8.54651L26.25 10.5087L27.4709 9.89825C27.6017 9.81104 27.689 9.76744 27.689 9.72384C27.7326 9.68023 27.7326 9.59302 27.689 9.50581V9.46221L27.7326 9.4186L28.0814 10.0727L28.0378 10.1163L27.9942 10.0291C27.9506 9.94186 27.907 9.89825 27.8198 9.89825C27.7762 9.89825 27.689 9.94186 27.5581 9.98546L25.7267 10.8576L25.6831 10.814L26.8169 8.72093L25.5087 9.375C25.3779 9.46221 25.2907 9.50581 25.2471 9.54942C25.2035 9.59302 25.2035 9.68023 25.2471 9.76744L25.2907 9.85465L25.2471 9.89825L24.8983 9.24418L24.9419 9.20058L24.9855 9.28779C25.0291 9.375 25.0727 9.4186 25.1599 9.4186C25.2035 9.4186 25.2907 9.375 25.4215 9.33139L26.9477 8.59011C26.9913 8.50291 27.0349 8.4157 27.0349 8.37209C27.0349 8.32849 27.0349 8.28488 27.0349 8.19767C27.0349 8.15407 27.0349 8.11046 26.9913 8.06686L27.0349 8.02325Z" fill="black"/>
<path d="M25.9012 11.0756H25.9448V11.1628C25.9884 11.25 26.032 11.2936 26.0756 11.3372C26.1192 11.3372 26.2064 11.3372 26.3372 11.2936L27.8634 10.9012C27.9942 10.8576 28.0814 10.814 28.125 10.7703C28.1686 10.7267 28.1686 10.6395 28.1686 10.5959V10.5087H28.2122L28.4302 11.3372C28.5174 11.6424 28.561 11.9041 28.5174 12.0785C28.4738 12.2529 28.3866 12.4273 28.2122 12.5581C28.0378 12.689 27.8634 12.8198 27.6017 12.8634C27.2529 12.9506 26.9913 12.9506 26.7297 12.8198C26.4244 12.689 26.2064 12.4273 26.1192 12.0349L25.9012 11.0756ZM26.2064 11.5988C26.2064 11.7297 26.2064 11.8605 26.25 11.9477C26.3372 12.1657 26.468 12.3401 26.686 12.4709C26.9041 12.5581 27.2093 12.6017 27.5145 12.5145C27.8198 12.4273 28.0814 12.2965 28.2122 12.0785C28.343 11.8605 28.3866 11.6424 28.343 11.4244C28.2994 11.3372 28.2558 11.25 28.2122 11.1192L26.2064 11.5988Z" fill="black"/>
<path d="M27.3837 14.4767L27.2965 13.6919L26.9041 13.561C26.8169 13.5174 26.7296 13.5174 26.686 13.5174C26.6424 13.5174 26.5988 13.5174 26.5988 13.561C26.5552 13.6047 26.5552 13.6483 26.5552 13.7791H26.5116L26.468 13.125H26.5116C26.5552 13.2122 26.5552 13.2558 26.5988 13.2994C26.6424 13.343 26.7733 13.3866 26.9477 13.4302L28.9971 14.0407V14.1279L27.0349 15C26.8605 15.0872 26.7733 15.1308 26.7296 15.1744C26.686 15.218 26.6424 15.3052 26.6424 15.3924H26.5552L26.5116 14.564H26.5552C26.5552 14.6512 26.5988 14.6948 26.5988 14.7384C26.6424 14.782 26.6424 14.782 26.686 14.782C26.7296 14.782 26.8169 14.7384 26.9477 14.6948L27.3837 14.4767ZM27.5145 14.4331L28.4738 13.9971L27.4709 13.6919L27.5145 14.4331Z" fill="black"/>
<path d="M28.9099 16.875L28.343 16.8314V16.7878C28.4302 16.7878 28.5174 16.7878 28.561 16.7442C28.6483 16.7006 28.6919 16.657 28.7355 16.6134C28.7791 16.5698 28.7791 16.4826 28.8227 16.3953L28.8663 16.0901L27.0349 15.9593C26.8605 15.9593 26.7733 15.9593 26.7297 15.9593C26.686 16.0029 26.6424 16.0465 26.6424 16.1337V16.2209H26.5988L26.686 15.3052H26.7297V15.3924C26.7297 15.4796 26.7297 15.5669 26.8169 15.6105C26.8605 15.6541 26.9477 15.6541 27.0785 15.6541L28.9099 15.7849V15.5233C28.9099 15.436 28.9099 15.3488 28.9099 15.3052C28.9099 15.2616 28.8663 15.218 28.7791 15.1744C28.7355 15.1308 28.6483 15.0872 28.5174 15.0872V15.0436L29.0843 15.1308L28.9099 16.875Z" fill="black"/>
<path d="M26.2936 17.5727H26.25L26.4244 16.7006H26.468V16.7878C26.468 16.875 26.468 16.9622 26.5116 17.0058C26.5552 17.0494 26.6424 17.0494 26.7733 17.093L28.2994 17.3983C28.4302 17.4419 28.5174 17.4419 28.561 17.4419C28.6047 17.4419 28.6047 17.4419 28.6483 17.3983C28.6919 17.3547 28.6919 17.311 28.7355 17.2674V17.1802H28.7791L28.6047 18.0523H28.561V17.9651C28.561 17.8779 28.561 17.8343 28.5174 17.7471C28.4738 17.7035 28.3866 17.7035 28.2558 17.6599L26.7297 17.3547C26.5988 17.311 26.5116 17.311 26.468 17.311C26.4244 17.311 26.4244 17.311 26.3808 17.3547C26.3372 17.3983 26.3372 17.4419 26.2936 17.4855V17.5727Z" fill="black"/>
<path d="M28.2558 19.4041C28.1686 19.6657 27.9506 19.8401 27.689 19.9709C27.3837 20.1017 27.0785 20.1017 26.7297 19.9709C26.3808 19.8401 26.1192 19.6657 25.9884 19.4041C25.814 19.1424 25.814 18.8808 25.9012 18.5756C25.9884 18.314 26.2064 18.0959 26.5116 18.0087C26.8169 17.8779 27.1221 17.9215 27.4709 18.0087C27.8198 18.1395 28.0814 18.3576 28.2558 18.6192C28.343 18.8808 28.343 19.1424 28.2558 19.4041ZM28.1686 19.3169C28.2558 19.1424 28.2122 18.968 28.0814 18.7936C27.9506 18.5756 27.689 18.4448 27.3401 18.314C26.9477 18.1831 26.6424 18.1395 26.4244 18.2267C26.25 18.2704 26.1192 18.4012 26.032 18.5756C25.9448 18.75 25.9884 18.968 26.1192 19.1424C26.25 19.3169 26.468 19.4913 26.8605 19.6221C27.2529 19.7529 27.5581 19.7965 27.8198 19.7093C27.9506 19.6657 28.0814 19.5349 28.1686 19.3169Z" fill="black"/>
<path d="M27.7326 20.6686L27.4273 21.1483L25.2035 21.3663L26.3808 22.064C26.5116 22.1512 26.5988 22.1948 26.6424 22.1512C26.6861 22.1512 26.7733 22.1076 26.8169 22.0203L26.8605 21.9767L26.9041 22.0203L26.5116 22.6744L26.468 22.6308L26.5116 22.5436C26.5552 22.4564 26.5552 22.4128 26.5116 22.3256C26.468 22.282 26.4244 22.2384 26.2936 22.1512L24.5494 21.1483L24.593 21.1046L27.0349 20.8866L25.7704 20.1453C25.6395 20.0581 25.5523 20.0145 25.5087 20.0145C25.4215 20.0145 25.3779 20.0581 25.3343 20.1453L25.2471 20.2326L25.2035 20.189L25.5959 19.5349L25.6395 19.5785L25.5959 19.6221C25.5523 19.7093 25.5523 19.7529 25.5959 19.8401C25.6395 19.8837 25.6831 19.9273 25.814 20.0145L27.2529 20.843C27.3401 20.843 27.4273 20.7994 27.4709 20.7994C27.5145 20.7994 27.5581 20.7558 27.6018 20.7122C27.6454 20.7122 27.6454 20.6686 27.689 20.5814L27.7326 20.6686Z" fill="black"/>
<path d="M9.59302 24.4186L9.15698 24.9855L9.11337 24.9419C9.20058 24.811 9.20058 24.7238 9.24419 24.6366C9.24419 24.5494 9.24419 24.4622 9.20058 24.3314C9.15698 24.2442 9.06977 24.157 9.02616 24.1134C8.93895 24.0262 8.85174 24.0262 8.72093 24.0262C8.63372 24.0262 8.54651 24.0698 8.50291 24.157C8.4593 24.2006 8.4593 24.2442 8.4593 24.3314C8.4593 24.4186 8.54651 24.593 8.67732 24.8547C8.76453 25.0727 8.85174 25.2035 8.89535 25.2907C8.93895 25.3779 8.93895 25.4651 8.93895 25.5523C8.93895 25.6395 8.89535 25.7267 8.85174 25.7703C8.76453 25.9012 8.63372 25.9448 8.4593 25.9884C8.28488 25.9884 8.11047 25.9448 7.93605 25.814C7.89244 25.7704 7.84884 25.7267 7.80523 25.6831C7.76163 25.6395 7.71802 25.5959 7.67442 25.5087C7.58721 25.4215 7.5436 25.3779 7.5436 25.3343C7.5436 25.3343 7.5 25.2907 7.4564 25.3343C7.41279 25.3343 7.41279 25.3343 7.36919 25.3779H7.19477L7.63081 24.811L7.67442 24.8547C7.58721 24.9855 7.58721 25.1163 7.5436 25.2035C7.5436 25.2907 7.5436 25.3779 7.63081 25.4651C7.67442 25.5523 7.76163 25.6395 7.84884 25.7267C7.97965 25.814 8.06686 25.8576 8.15407 25.814C8.24128 25.814 8.32849 25.7704 8.4157 25.6831C8.4593 25.6395 8.4593 25.5959 8.4593 25.5523C8.4593 25.5087 8.4593 25.4215 8.4157 25.3343C8.4157 25.2907 8.32849 25.1599 8.24128 24.9855C8.15407 24.811 8.06686 24.6366 8.06686 24.5494C8.02326 24.4622 8.02326 24.375 8.02326 24.2878C8.02326 24.2006 8.06686 24.1134 8.11046 24.0698C8.19767 23.939 8.32849 23.8954 8.50291 23.8517C8.67733 23.8517 8.80814 23.8953 8.98256 23.9826C9.06977 24.0698 9.15698 24.157 9.24419 24.2878C9.28779 24.3314 9.28779 24.375 9.33139 24.375C9.375 24.375 9.375 24.4186 9.4186 24.4186C9.46221 24.4186 9.46221 24.4186 9.50581 24.375L9.59302 24.4186Z" fill="black"/>
<path d="M9.63663 26.8169L9.59302 26.8605L8.76453 26.3808L8.80814 26.3372L8.89535 26.3808C8.98256 26.4244 9.02616 26.4244 9.11337 26.4244C9.15698 26.4244 9.20058 26.3372 9.28779 26.25L9.98546 25.0727C10.0291 24.9855 10.0727 24.8983 10.0727 24.8983C10.0727 24.8546 10.0727 24.8546 10.0291 24.811C9.98546 24.7674 9.94186 24.7238 9.89826 24.7238L9.81105 24.6366V24.593L10.6395 25.0727L10.5959 25.1163L10.5087 25.0727C10.5087 25.0291 10.4215 25.0291 10.3343 25.0291C10.2907 25.0291 10.2471 25.1163 10.1599 25.2035L9.46221 26.3808C9.4186 26.468 9.375 26.5552 9.375 26.5552C9.375 26.5988 9.375 26.5988 9.4186 26.6424C9.46221 26.686 9.50581 26.7296 9.54942 26.7296L9.63663 26.8169Z" fill="black"/>
<path d="M10.5087 25.0727L11.0756 25.2907L11.8169 27.2093L12.2529 26.0756C12.2965 25.9448 12.2965 25.8576 12.2965 25.8576C12.2529 25.814 12.2093 25.7704 12.1221 25.7267L12.0349 25.6831V25.6395L12.7762 25.9012V25.9448L12.689 25.9012C12.6017 25.8576 12.5145 25.8576 12.4709 25.9012C12.4273 25.9448 12.3837 25.9884 12.3401 26.1192L11.7297 27.7762H11.686L10.9012 25.7267L10.4215 26.9041C10.3779 27.0349 10.3779 27.1221 10.3779 27.1221C10.4215 27.1657 10.4651 27.2093 10.5523 27.2529L10.6395 27.2965V27.3401L9.89825 27.0785V27.0349L9.98546 27.0785C10.0727 27.1221 10.1599 27.1221 10.2035 27.0785C10.2471 27.0349 10.2907 26.9913 10.3343 26.9041L10.8576 25.5523C10.814 25.4651 10.7703 25.4215 10.7703 25.3779C10.7267 25.3343 10.7267 25.2907 10.6395 25.2907C10.5959 25.2907 10.5523 25.2471 10.5087 25.2471V25.0727Z" fill="black"/>
<path d="M14.6076 26.0756L14.5203 26.7733H14.4767C14.4331 26.5552 14.3459 26.3808 14.2587 26.2936C14.1279 26.1628 13.9971 26.1192 13.8227 26.0756C13.6919 26.0756 13.5174 26.0756 13.3866 26.1192C13.2558 26.1628 13.1686 26.25 13.0378 26.4244C12.9506 26.5552 12.8634 26.7297 12.8634 26.9913C12.8198 27.1657 12.8634 27.3401 12.907 27.4709C12.9506 27.6017 13.0378 27.7326 13.1686 27.8198C13.2994 27.907 13.4302 27.9506 13.6047 27.9942C13.7355 27.9942 13.8663 27.9942 13.9971 27.9506C14.1279 27.907 14.2587 27.8198 14.4331 27.6454L14.4767 27.689C14.3459 27.8634 14.1715 27.9506 14.0407 28.0378C13.8663 28.0814 13.6919 28.125 13.4738 28.0814C13.125 28.0378 12.8198 27.8634 12.689 27.6017C12.5581 27.3837 12.5145 27.1657 12.5581 26.9041C12.6017 26.686 12.6453 26.5116 12.7762 26.3808C12.907 26.2064 13.0378 26.1192 13.2558 26.032C13.4302 25.9448 13.6483 25.9448 13.8663 25.9884C14.0407 26.032 14.1715 26.0756 14.3459 26.1628C14.3895 26.2064 14.4331 26.2064 14.4331 26.2064C14.4767 26.2064 14.4767 26.2064 14.5203 26.2064C14.564 26.1628 14.564 26.1628 14.6076 26.1192V26.0756Z" fill="black"/>
<path d="M15.2616 26.2064L15.3052 27.0349L15.7849 26.9913C15.9157 26.9913 16.0029 26.9477 16.0465 26.9041C16.0901 26.8605 16.1337 26.7733 16.1337 26.6424H16.1773L16.2209 27.3401H16.1773C16.1773 27.2529 16.1337 27.1657 16.1337 27.1657C16.1337 27.1221 16.0901 27.1221 16.0465 27.0785C16.0029 27.0785 15.9157 27.0349 15.8285 27.0785L15.3488 27.1221L15.3924 27.8198C15.3924 27.907 15.3924 27.9506 15.3924 27.9942L15.436 28.0378C15.4797 28.0378 15.4797 28.0378 15.5669 28.0378H15.9593C16.0901 28.0378 16.1773 28.0378 16.2209 27.9942C16.2645 27.9942 16.3517 27.9506 16.3953 27.907C16.4826 27.8198 16.5262 27.7326 16.6134 27.6017H16.657L16.4826 28.125L14.7384 28.2122V28.1686H14.8256C14.8692 28.1686 14.9128 28.1686 14.9564 28.125C15 28.125 15 28.0814 15.0436 28.0378C15.0436 27.9942 15.0436 27.9506 15.0436 27.8198L14.9564 26.468C14.9564 26.3372 14.9128 26.25 14.9128 26.2064C14.8692 26.1628 14.8256 26.1628 14.6948 26.1628H14.6076V26.1192L16.3517 26.032L16.3953 26.468H16.3081C16.2645 26.3808 16.2645 26.2936 16.2209 26.25C16.1773 26.2064 16.1337 26.1628 16.0901 26.1628C16.0465 26.1628 15.9593 26.1628 15.8721 26.1628L15.2616 26.2064Z" fill="black"/>
<path d="M18.314 27.3401L18.2267 27.7762L16.9186 28.0378V27.9942C17.2238 27.6017 17.4419 27.2965 17.5727 27.0349C17.7035 26.8169 17.7471 26.5988 17.7035 26.4244C17.6599 26.2936 17.6163 26.2064 17.5291 26.1192C17.4419 26.032 17.311 26.032 17.1802 26.0756C17.0494 26.0756 16.9622 26.1628 16.9186 26.2064C16.8314 26.2936 16.7878 26.3808 16.7878 26.5116H16.7442C16.7442 26.3372 16.7878 26.1628 16.875 26.032C16.9622 25.9012 17.093 25.814 17.2674 25.814C17.4419 25.7703 17.6163 25.8139 17.7471 25.9012C17.8779 25.9884 17.9651 26.0756 18.0087 26.25C18.0087 26.3372 18.0087 26.468 18.0087 26.5552C17.9651 26.7296 17.8779 26.9477 17.7035 27.1657C17.4855 27.4709 17.3547 27.6889 17.311 27.7326L17.8779 27.6017C18.0087 27.5581 18.0959 27.5581 18.1395 27.5581C18.1831 27.5581 18.2267 27.5145 18.2703 27.4709C18.314 27.4273 18.314 27.3837 18.3576 27.3401H18.314Z" fill="black"/>
<path d="M18.4448 26.7297C18.3576 26.5116 18.314 26.2936 18.3576 26.1192C18.3576 25.9448 18.4448 25.7703 18.532 25.6395C18.6192 25.5523 18.7064 25.4651 18.7936 25.4215C18.968 25.3779 19.1424 25.3779 19.3169 25.5087C19.5349 25.6395 19.7093 25.8576 19.8401 26.2064C19.9273 26.4244 19.9709 26.6424 19.9273 26.8169C19.9273 26.9913 19.8837 27.1657 19.7965 27.2529C19.7093 27.3837 19.6221 27.4273 19.5349 27.4709C19.3169 27.5581 19.1424 27.4709 18.9244 27.3401C18.6628 27.1657 18.532 26.9477 18.4448 26.7297ZM18.75 26.6424C18.8372 26.9041 18.968 27.1221 19.0988 27.2529C19.2297 27.3837 19.3169 27.4273 19.4477 27.3837C19.4913 27.3837 19.5349 27.3401 19.5785 27.2529C19.6221 27.1657 19.6221 27.0785 19.6221 26.9913C19.6221 26.8169 19.5349 26.5552 19.4477 26.25C19.3605 26.032 19.2733 25.8576 19.1424 25.7267C19.0552 25.6395 18.968 25.5523 18.9244 25.5523C18.8808 25.5523 18.7936 25.5523 18.75 25.5523C18.6628 25.5959 18.6192 25.6395 18.5756 25.7267C18.532 25.814 18.532 25.9884 18.5756 26.1628C18.6192 26.2936 18.6628 26.468 18.75 26.6424Z" fill="black"/>
<path d="M20.0581 26.1192C19.9709 25.9012 19.8837 25.7267 19.8837 25.5087C19.8837 25.3343 19.9273 25.1599 19.9709 25.0291C20.0145 24.9419 20.1017 24.8546 20.189 24.811C20.3634 24.7238 20.5378 24.7238 20.7122 24.811C20.9738 24.8983 21.1483 25.1163 21.3227 25.4215C21.4099 25.6395 21.4971 25.8576 21.4971 26.032C21.4971 26.2064 21.4535 26.3808 21.4099 26.468C21.3227 26.5988 21.2355 26.686 21.1483 26.7296C20.9738 26.8169 20.7558 26.7733 20.4942 26.6424C20.3198 26.5552 20.189 26.3808 20.0581 26.1192ZM20.3634 26.032C20.4942 26.2936 20.625 26.468 20.7994 26.5988C20.9302 26.686 21.061 26.7296 21.1483 26.686C21.1919 26.6424 21.2355 26.5988 21.2791 26.5552C21.3227 26.468 21.3227 26.3808 21.2791 26.25C21.2355 26.0756 21.1483 25.8576 21.0174 25.5523C20.9302 25.3343 20.7994 25.1599 20.6686 25.0727C20.5814 24.9855 20.4942 24.9419 20.407 24.8983C20.3634 24.8983 20.2762 24.8983 20.2326 24.9419C20.1453 24.9855 20.1017 25.0291 20.1017 25.1163C20.0581 25.2035 20.0581 25.3779 20.1453 25.5523C20.189 25.6831 20.2762 25.8576 20.3634 26.032Z" fill="black"/>
<path d="M23.1541 25.1599L23.2413 25.5959L22.1076 26.2936L22.064 26.25C22.2384 25.7704 22.3256 25.3779 22.3256 25.1599C22.3692 24.8983 22.3256 24.6802 22.2384 24.5494C22.1512 24.4186 22.064 24.375 21.9331 24.3314C21.8023 24.2878 21.7151 24.3314 21.5843 24.375C21.4971 24.4186 21.4099 24.5058 21.3663 24.593C21.3227 24.6802 21.3227 24.8111 21.3227 24.8983L21.2791 24.9419C21.1919 24.7674 21.1919 24.593 21.2355 24.4622C21.2791 24.3314 21.3663 24.2006 21.5407 24.1134C21.7151 24.0262 21.8459 23.9826 22.0204 24.0262C22.1948 24.0698 22.3256 24.1134 22.3692 24.2442C22.4128 24.3314 22.4564 24.4186 22.4564 24.5494C22.4564 24.7238 22.4564 24.9419 22.4128 25.2035C22.3256 25.5959 22.282 25.814 22.2384 25.9012L22.718 25.5959C22.8052 25.5523 22.8924 25.5087 22.936 25.4651C22.9797 25.4215 22.9797 25.3779 23.0233 25.3779C23.0233 25.3343 23.0669 25.2907 23.0669 25.2471L23.1541 25.1599Z" fill="black"/>
<path d="M15.218 7.5436H12.6453V12.3401H15.218V7.5436Z" fill="#005BAA"/>
<path d="M18.1395 17.7035H15.6541V22.5H18.1395V17.7035Z" fill="#005BAA"/>
<path d="M18.1395 7.5436H15.6541V12.3401H18.1395V7.5436Z" fill="#005BAA"/>
<path d="M15.218 17.7035H12.6453V22.5H15.218V17.7035Z" fill="#005BAA"/>
<path d="M23.0669 12.3401H18.1395V14.782H23.0669V12.3401Z" fill="#005BAA"/>
<path d="M12.6017 12.3401H7.67442V14.782H12.6017V12.3401Z" fill="#005BAA"/>
<path d="M12.6017 15.218H7.67442V17.7035H12.6017V15.218Z" fill="#005BAA"/>
<path d="M23.0669 15.218H18.1395V17.7035H23.0669V15.218Z" fill="#005BAA"/>
<path d="M15.6541 12.3401H15.218V14.782H15.6541V12.3401Z" fill="#005BAA"/>
<path d="M15.6541 15.218H15.218V17.7035H15.6541V15.218Z" fill="#005BAA"/>
<path d="M0 15C0 23.2413 6.93314 30 15.436 30C23.939 30 30.8721 23.2849 30.8721 15C30.8721 6.71512 23.939 0 15.436 0C6.93314 0 0 6.75872 0 15ZM0.523256 15C0.523256 7.02035 7.19477 0.523256 15.436 0.523256C23.6773 0.523256 30.3488 7.02035 30.3488 15.0436C30.3488 23.0233 23.6337 29.5203 15.436 29.5203C7.19477 29.5203 0.523256 23.0233 0.523256 15Z" fill="#005BAA"/>
<path d="M0.872093 15C0.872093 22.8052 7.41279 29.1279 15.436 29.1279C23.4593 29.1279 30 22.7616 30 15C30 7.19477 23.4593 0.828491 15.436 0.828491C7.41279 0.872096 0.872093 7.19477 0.872093 15ZM1.09012 15C1.09012 7.32558 7.5 1.04651 15.436 1.04651C23.3285 1.04651 29.782 7.28198 29.782 15C29.782 22.6744 23.3285 28.9535 15.436 28.9535C7.54361 28.9535 1.09012 22.6744 1.09012 15Z" fill="#005BAA"/>
<path d="M5.23256 15C5.23256 20.4942 9.81105 24.9419 15.436 24.9419C21.061 24.9419 25.6831 20.4942 25.6831 15C25.6831 9.50581 21.1047 5.05814 15.436 5.05814C9.81105 5.05814 5.23256 9.50581 5.23256 15ZM5.66861 15C5.66861 9.76744 10.0727 5.49418 15.436 5.49418C20.843 5.49418 25.2035 9.76744 25.2035 15C25.2035 20.2326 20.843 24.5058 15.436 24.5058C10.0291 24.5058 5.66861 20.2326 5.66861 15Z" fill="#005BAA"/>
<path d="M6.06105 23.2413C6.06105 23.0233 6.23547 22.8488 6.45349 22.8488C6.67151 22.8488 6.84593 23.0233 6.84593 23.2413C6.84593 23.4593 6.67151 23.6337 6.45349 23.6337C6.23547 23.6337 6.06105 23.4593 6.06105 23.2413Z" fill="#0066B3"/>
<path d="M23.8953 23.2413C23.8953 23.0233 24.0698 22.8488 24.2878 22.8488C24.5058 22.8488 24.6802 23.0233 24.6802 23.2413C24.6802 23.4593 24.5058 23.6337 24.2878 23.6337C24.0698 23.6337 23.8953 23.4593 23.8953 23.2413Z" fill="#0066B3"/>
</svg>
