<?xml version="1.0" encoding="UTF-8"?>
<svg id="Layer_1" xmlns="http://www.w3.org/2000/svg" version="1.1" viewBox="0 0 142 32">
  <!-- Generator: Adobe Illustrator 29.8.2, SVG Export Plug-In . SVG Version: 2.1.1 Build 3)  -->
  <defs>
    <style>
      .st0 {
        fill: #231916;
      }

      .st1 {
        fill: #fff;
      }

      .st2 {
        fill: #e62411;
      }
    </style>
  </defs>
  <g>
    <path class="st2" d="M32.24,4.94h4.88V.06h4.24v4.88h4.87v4.24h-4.87v4.87h-4.24v-4.87h-4.88v-4.24Z"/>
    <rect class="st2" x="1.26" y="4.98" width="27.48" height="27.48"/>
    <path class="st1" d="M6.41,9.22h5.85v6.6h5.48v-6.6h5.85v19h-5.85v-7.54h-5.48v7.54h-5.85V9.22Z"/>
  </g>
  <g>
    <path class="st0" d="M62.45,31.05c-1.21,0-2.33-.11-3.33-.32-1.01-.21-1.9-.53-2.65-.96-.75-.43-1.35-.97-1.77-1.6-.43-.64-.64-1.38-.64-2.22s.22-1.55.66-2.18c.43-.62,1.04-1.16,1.81-1.61.76-.43,1.66-.76,2.67-.98,1.01-.23,2.11-.34,3.28-.34s2.33.12,3.33.34c1.01.23,1.91.56,2.67.98.75.43,1.35.97,1.78,1.6.44.64.66,1.37.66,2.19s-.22,1.6-.66,2.22c-.47.63-1.06,1.16-1.78,1.59-.76.43-1.67.75-2.69.96-1.01.21-2.14.32-3.34.32ZM62.47,23.56c-1.47,0-2.68.22-3.58.66-.87.42-1.29.97-1.29,1.7,0,.37.11.7.34.99.23.3.56.56.98.78.42.22.94.4,1.55.51.61.12,1.29.18,2.02.18,1.5,0,2.71-.24,3.58-.71.88-.45,1.3-1.03,1.3-1.75s-.41-1.32-1.24-1.72c-.87-.42-2.09-.63-3.64-.63ZM66.78,21.38V6.96h3.33v2.24h3.07v2.86h-3.07v2.42h3.07v2.89h-3.07v4.01h-3.33ZM57.82,19.35c-.96,0-1.84-.15-2.62-.46-.78-.3-1.47-.73-2.04-1.26-.56-.54-.99-1.19-1.3-1.93-.3-.74-.46-1.56-.46-2.43s.15-1.66.46-2.39c.3-.73.74-1.38,1.29-1.91.57-.54,1.26-.97,2.04-1.28.78-.31,1.67-.47,2.62-.47s1.83.16,2.61.47c.77.31,1.45.74,2.03,1.27.56.54,1,1.18,1.31,1.91.31.73.47,1.54.47,2.39s-.16,1.7-.48,2.44c-.3.73-.74,1.37-1.29,1.91-.57.54-1.26.96-2.03,1.26-.77.3-1.65.46-2.61.46ZM57.82,10.11c-.98,0-1.74.3-2.26.88-.53.59-.8,1.37-.8,2.3s.27,1.67.8,2.28c.53.61,1.27.91,2.26.91s1.73-.3,2.26-.91c.53-.61.8-1.38.8-2.28s-.27-1.71-.8-2.3c-.52-.59-1.28-.88-2.26-.88Z"/>
    <path class="st0" d="M63.57,15.64c-.3.71-.71,1.33-1.25,1.85-.56.52-1.21.93-1.96,1.22-.75.3-1.6.44-2.54.44s-1.79-.15-2.55-.44c-.76-.29-1.42-.7-1.98-1.22-.54-.52-.95-1.14-1.25-1.86-.3-.72-.44-1.5-.44-2.35s.15-1.6.44-2.32c.29-.71.71-1.33,1.25-1.85.55-.52,1.21-.93,1.98-1.24.76-.3,1.61-.46,2.55-.46s1.78.15,2.54.46c.75.3,1.41.72,1.96,1.24.54.52.96,1.14,1.26,1.85.3.71.46,1.48.46,2.32s-.16,1.64-.47,2.37ZM70.1,28.08c-.45.61-1.02,1.12-1.72,1.54-.75.42-1.62.73-2.63.94-1.01.21-2.11.31-3.3.31s-2.29-.1-3.29-.31c-1-.21-1.86-.52-2.59-.94-.73-.42-1.3-.93-1.7-1.54-.41-.61-.61-1.31-.61-2.11s.21-1.47.62-2.07,1-1.11,1.74-1.55c.75-.42,1.62-.74,2.61-.96,1-.23,2.08-.34,3.24-.34s2.29.11,3.29.34c1,.23,1.87.55,2.61.96.73.42,1.3.93,1.72,1.54.42.61.62,1.3.62,2.08s-.21,1.52-.62,2.11ZM57.82,16.68c1.04,0,1.84-.33,2.41-.98.56-.65.85-1.45.85-2.41s-.28-1.8-.85-2.43c-.56-.63-1.37-.95-2.41-.95s-1.84.32-2.41.95c-.56.63-.85,1.44-.85,2.43s.28,1.76.85,2.41c.56.65,1.37.98,2.41.98ZM66.14,27.84c.94-.49,1.4-1.13,1.4-1.93s-.45-1.47-1.35-1.9c-.9-.43-2.14-.65-3.72-.65s-2.73.23-3.67.68c-.94.45-1.41,1.08-1.41,1.87,0,.42.13.78.38,1.11.25.32.6.6,1.04.83s.98.41,1.6.53c.62.12,1.31.18,2.06.18,1.54,0,2.77-.24,3.67-.73ZM69.92,21.18h-2.94V7.16h2.94v2.24h3.07v2.47h-3.07v2.81h3.07v2.5h-3.07v4.01Z"/>
    <path class="st0" d="M90.74,30.64V6.96h3.33v23.68h-3.33ZM73.32,24.12l.24-.14c.94-.56,1.81-1.22,2.58-1.95.77-.73,1.43-1.56,1.97-2.48.54-.92.96-1.94,1.25-3.05.3-1.11.45-2.33.45-3.64v-1.7h-4.68v-2.84h12.96v2.84h-4.74v1.83c0,2.26.47,4.29,1.39,6.02.92,1.73,2.42,3.19,4.46,4.35l.23.13-2.38,2.29-.13-.08c-1.26-.8-2.39-1.75-3.37-2.8-.86-.92-1.51-1.9-1.96-2.9-.47,1.1-1.17,2.18-2.09,3.22-.54.61-1.09,1.18-1.64,1.68-.55.51-1.11.97-1.67,1.37l-.12.09-2.75-2.22Z"/>
    <path class="st0" d="M87.04,25.53c-1.25-.8-2.36-1.72-3.33-2.77-.97-1.05-1.67-2.15-2.11-3.29-.45,1.23-1.2,2.44-2.24,3.62-.54.61-1.08,1.16-1.63,1.67-.55.5-1.1.95-1.65,1.35l-2.42-1.95c.95-.57,1.83-1.23,2.61-1.98.79-.75,1.46-1.59,2-2.52s.97-1.97,1.27-3.1c.3-1.13.46-2.36.46-3.69v-1.9h-4.68v-2.45h12.57v2.45h-4.74v2.03c0,2.31.47,4.35,1.42,6.11.95,1.77,2.46,3.24,4.54,4.42l-2.08,2ZM93.88,30.44h-2.94V7.16h2.94v23.29Z"/>
    <path class="st0" d="M108.09,31.05c-1.2,0-2.32-.1-3.33-.3-1.01-.2-1.9-.5-2.64-.89-.75-.41-1.35-.92-1.77-1.5-.43-.6-.65-1.31-.65-2.13,0-.77.22-1.46.66-2.07.43-.59,1.04-1.1,1.81-1.51.76-.41,1.65-.72,2.67-.94,1.01-.22,2.11-.33,3.28-.33s2.33.11,3.33.32c1.01.21,1.91.52,2.67.93.75.41,1.35.93,1.78,1.53.44.61.66,1.31.66,2.08,0,.84-.22,1.55-.67,2.12-.45.61-1.05,1.12-1.78,1.51-.76.39-1.66.69-2.68.89-1.02.2-2.14.3-3.34.3ZM108.11,24.08c-1.47,0-2.68.2-3.59.6-.87.38-1.29.88-1.29,1.52,0,.32.11.6.33.85.23.26.56.5.98.69.42.2.95.36,1.55.47.61.11,1.29.17,2.02.17,1.42,0,2.63-.22,3.59-.66.87-.4,1.29-.9,1.29-1.51,0-.65-.4-1.15-1.24-1.53-.87-.39-2.1-.59-3.64-.59ZM113.07,21.69v-4.08h-3.75v1.24c0,.34-.08.57-.23.72-.15.14-.38.21-.69.21h-9.58c-.34,0-.57-.07-.7-.22-.13-.14-.19-.37-.19-.7V7.66h3.31v3.46h4.79v-3.46h3.31v2.45h3.75v-3.15h3.31v14.73h-3.31ZM106.02,16.9v-2.91h-4.79v2.91h4.79ZM113.07,14.79v-1.9h-3.75v1.9h3.75Z"/>
    <path class="st0" d="M116.18,21.49h-2.91v-4.08h-4.14v1.43c0,.28-.06.47-.17.57-.11.1-.3.16-.56.16h-9.58c-.28,0-.46-.05-.56-.16-.1-.1-.14-.29-.14-.57V7.86h2.91v3.46h5.18v-3.46h2.91v2.45h4.14v-3.15h2.91v14.34ZM115.74,28.23c-.43.59-1.01,1.08-1.72,1.46-.75.38-1.62.67-2.63.87-1.01.2-2.11.3-3.3.3s-2.29-.1-3.29-.3c-1-.2-1.86-.49-2.59-.87-.73-.4-1.3-.88-1.7-1.44-.41-.56-.61-1.24-.61-2.02,0-.73.21-1.38.62-1.95.42-.57,1-1.06,1.74-1.46.75-.4,1.62-.71,2.62-.92,1-.22,2.08-.33,3.24-.33s2.29.1,3.29.31c1,.21,1.87.51,2.61.91.73.4,1.3.89,1.72,1.47.42.58.62,1.24.62,1.96,0,.8-.21,1.47-.62,2ZM106.21,17.09v-3.3h-5.18v3.3h5.18ZM111.78,27.89c.94-.43,1.41-1,1.41-1.69,0-.73-.45-1.3-1.35-1.7-.9-.41-2.14-.61-3.72-.61s-2.73.2-3.67.61c-.94.41-1.4.98-1.4,1.7,0,.36.13.69.38.98.25.29.6.53,1.04.74.44.21.98.37,1.6.48.62.11,1.31.17,2.06.17,1.46,0,2.68-.23,3.67-.68ZM113.26,14.99v-2.29h-4.14v2.29h4.14Z"/>
    <path class="st0" d="M124.11,30.2c-.34,0-.57-.07-.7-.22-.13-.14-.19-.37-.19-.7v-5.71h3.41v3.75h13.27v2.89h-15.78ZM136.12,25.2v-2.32h-5.1v-2.65h5.1V6.96h3.33v18.24h-3.33ZM124.57,23.14v-3.67h-4.89v-2.78h6.93c.43,0,1.04-.01,1.8-.04.76-.03,1.6-.07,2.48-.12.85-.07,1.72-.14,2.58-.22.83-.08,1.54-.17,2.1-.27l.23-.04v2.79l-.16.03c-1.01.19-2.22.33-3.59.42-1.31.08-2.71.14-4.16.18v3.73h-3.33ZM127.31,15.81c-.9,0-1.72-.11-2.45-.32-.73-.21-1.36-.52-1.88-.9-.53-.39-.93-.87-1.22-1.42-.28-.55-.42-1.17-.42-1.84,0-1.31.55-2.41,1.63-3.27,1.07-.86,2.53-1.29,4.34-1.29s3.34.43,4.42,1.29c1.08.87,1.63,1.97,1.63,3.27s-.55,2.46-1.64,3.28c-1.07.8-2.55,1.21-4.41,1.21ZM127.31,9.54c-.94,0-1.63.16-2.04.48-.4.31-.6.74-.6,1.3,0,.6.19,1.03.6,1.33.41.3,1.1.46,2.04.46,1.01,0,1.72-.15,2.12-.45.42-.3.63-.73.63-1.33,0-.56-.2-.99-.61-1.3-.42-.32-1.14-.48-2.13-.48Z"/>
    <path class="st0" d="M135.61,18.63c-1.01.19-2.19.33-3.56.42-1.37.09-2.82.15-4.35.18v3.72h-2.94v-3.67h-4.89v-2.39h6.74c.43,0,1.04-.01,1.81-.04.77-.03,1.6-.07,2.48-.12.88-.07,1.75-.14,2.59-.22.84-.08,1.55-.17,2.12-.27v2.39ZM133.17,11.32c0,1.3-.52,2.34-1.56,3.12-1.04.78-2.47,1.17-4.29,1.17-.88,0-1.68-.1-2.39-.31-.71-.21-1.32-.5-1.82-.87-.5-.37-.89-.82-1.16-1.35-.27-.53-.4-1.11-.4-1.76,0-1.25.52-2.29,1.56-3.12,1.04-.83,2.45-1.25,4.22-1.25s3.25.42,4.29,1.25c1.04.83,1.56,1.87,1.56,3.12ZM139.7,30h-15.59c-.28,0-.46-.05-.56-.16-.1-.1-.14-.3-.14-.57v-5.52h3.02v3.75h13.27v2.5ZM129.55,12.8c.47-.33.7-.82.7-1.48,0-.62-.23-1.11-.69-1.46-.46-.35-1.21-.52-2.25-.52s-1.71.17-2.16.52c-.45.35-.68.83-.68,1.46,0,.66.23,1.15.68,1.48.45.33,1.17.49,2.16.49,1.06,0,1.8-.16,2.24-.49ZM139.26,25h-2.94v-2.32h-5.1v-2.26h5.1V7.16h2.94v17.85Z"/>
  </g>
</svg>