<?xml version="1.0" encoding="utf-8"?>
<!-- Generator: Adobe Illustrator 16.0.0, SVG Export Plug-In . SVG Version: 6.00 Build 0)  -->
<!DOCTYPE svg PUBLIC "-//W3C//DTD SVG 1.1//EN" "http://www.w3.org/Graphics/SVG/1.1/DTD/svg11.dtd">
<svg version="1.1" id="레이어_1" xmlns="http://www.w3.org/2000/svg" xmlns:xlink="http://www.w3.org/1999/xlink" x="0px"
	 y="0px" width="595.28px" height="139.707px" viewBox="0 0 595.28 139.707" enable-background="new 0 0 595.28 139.707"
	 xml:space="preserve">
<g>
	<g>
		<path fill="#349FC4" d="M108.351,62.17c-1.776-1.764-8.059-8.202-9.347-9.729c-0.507-0.62-1.423-2.66-1.948-4.172
			c-0.018-0.079-0.03-0.136-0.046-0.196c-2.815-12.905-7.251-23.036-13.379-30.582C73.96,5.55,60.502,0,41.282,0
			C25.685,0,11.473,6.047,0.856,15.907l6.82,6.85C16.534,14.61,28.338,9.623,41.282,9.623c16.314,0,27.068,4.29,34.866,13.929
			c5.374,6.611,9.255,15.769,11.708,27.607l0,0c0.385,1.166,1.819,5.118,3.762,7.467c1.16,1.376,4.654,4.99,7.183,7.584
			c-0.681,0.498-1.42,1.044-2.077,1.527c-0.654,0.456-1.352,0.996-2.042,1.504l-0.334,0.272c-1.012,0.743-3.648,2.802-3.543,6.974
			v0.033l0,0l0,0c0.157,3.764,0.251,7.712,0.251,11.846c0,1.787-0.094,3.431-0.275,4.925c0,0.094-0.009,0.159-0.009,0.234l0,0
			c-0.486,3.839-1.562,6.768-3.289,9.005l6.828,6.85c3.017-3.471,4.939-7.965,5.829-13.476c0.052-0.433,0.123-0.837,0.171-1.264
			c0.04-0.136,0.053-0.26,0.062-0.4h-0.009c0.173-1.523,0.277-3.14,0.312-4.854c0-0.331,0.013-0.659,0.013-1.021
			c0-0.136,0-0.305,0-0.483c0-0.015,0-0.038,0-0.052l0,0c0-0.352,0-0.728,0-1.117c-0.013-2.138-0.066-4.234-0.109-6.289
			c-0.042-1.178-0.094-2.331-0.134-3.478h0.022c0.679-0.521,1.315-0.985,1.914-1.422c4.615-3.356,7.413-5.39,7.674-8.783
			C110.161,65.031,109.578,63.416,108.351,62.17"/>
		<path fill="#E07D11" d="M85.896,105.157h-0.019l-0.475-0.483l0,0c-4.607,3.715-12.14,4.669-23.173,4.732h-0.057
			c-2.874,0-7.096,3.96-7.096,9.03v0.546v18.97v1.753h9.625v-20.701c9.725-0.178,17.596-1.226,23.829-4.835
			c1.332-0.799,2.57-1.682,3.693-2.664L85.896,105.157z"/>
		<path fill="#E07D11" d="M51.534,67.621c-0.301,0.057-0.597,0.099-0.876,0.117c-0.055,0-0.113,0-0.174,0c-0.106,0-0.198,0-0.306,0
			c-5.293-0.554-7.079-4.341-7.343-6.676c-0.519,4.599-4.445,6.551-7.096,6.752c-0.08,0-0.164,0.033-0.232,0.033
			c-0.038,0-0.057,0-0.081,0c-2.801-0.057-4.48-1.278-5.401-2.255c-1.835-1.988-1.936-4.473-1.901-5.216l-0.047-6.538l-0.057,6.829
			c0,0.169,0,0.348-0.026,0.513c-0.381,2.218-2.474,6.423-7.615,6.423l-0.287-0.019c-0.08-0.015-0.181-0.015-0.26-0.015
			c-2.651-0.314-6.558-2.584-6.558-7.536l0.098-15.443c-0.126-2.645,0.795-7.279,4.321-10.802l-7.808-7.811
			C3.788,32.124,0,40.581,0,49.91c0,18.749,15.204,33.932,33.938,33.932c9.334,0,17.79-3.768,23.926-9.896L51.534,67.621z"/>
		<path fill="#3D5668" d="M51.393,36.625c-0.08-0.057-0.242-0.249-0.479-0.483l0,0c-1.778-1.734-7.795-6.584-15.455-0.634
			c-4.895-4.455-11.151-2.281-11.151-2.281c-8.318,3.032-7.826,11.294-7.826,11.294l-0.088,15.512
			c-0.016,3.99,3.802,4.463,3.802,4.463c4.061,0.132,4.74-3.852,4.74-3.852l0.087-14.756c0.183-1.226-0.073-2.096,0.319-2.739
			c1.869-3.266,4.643-1.18,5.041-0.852c0,0-0.019,0.029-0.033,0.038c0,0,0.747,0.151,0.758,2.567l0.132,15.543
			c0,0-0.237,4.183,4.27,4.281c0,0,4.145-0.322,4.25-4.387l-0.105-15.861c0,0,0.432-3.304,3.621-3.101c0,0,2.836,0.127,2.601,5.188
			v13.88c0,0,0.128,3.737,4.61,4.183c0,0,3.849-0.224,3.936-3.984v-16.71C54.419,43.933,54.407,39.97,51.393,36.625 M31.818,39.595
			c-0.113,0.164-0.207,0.356-0.296,0.513C31.611,39.951,31.706,39.769,31.818,39.595 M32.225,38.961
			c-0.134,0.182-0.244,0.36-0.357,0.548C31.981,39.321,32.09,39.144,32.225,38.961"/>
	</g>
	<path fill="#3D5668" d="M595.28,134.313v-3.423h-12.484v-21.675h-3.785v25.098H595.28z M565.995,114.556
		c0.352,0.871,0.676,1.726,0.939,2.594c0.348,0.795,0.611,1.599,0.89,2.387c0.347,0.795,0.623,1.599,0.92,2.373
		c0.272,0.81,0.573,1.651,0.93,2.534h-7.556L565.995,114.556z M560.886,127.605h9.949l2.481,6.708h4.145l-9.252-25.098h-3.632
		l-10.085,25.098h3.67L560.886,127.605z M546.822,134.313v-21.908h7.979v-3.19h-19.845v3.19h8.074v21.908H546.822z M533.565,109.214
		h-3.786v25.098h3.786V109.214z M515.817,112.405h3.195c1.945,0,3.242,0.375,3.882,1.09c0.615,0.713,0.958,1.657,0.958,2.852
		c0,1.494-0.409,2.688-1.24,3.699c-0.771,0.996-2.491,1.464-5.122,1.464h-1.673V112.405z M515.817,124.688h2.546
		c3.064,0,5.438-0.781,7.021-2.425c1.607-1.622,2.396-3.62,2.396-6.02c0-1.335-0.272-2.594-0.846-3.722
		c-0.268-0.561-0.626-1.04-1.048-1.443c-0.413-0.4-0.921-0.751-1.467-1.048c-0.521-0.249-1.282-0.441-2.194-0.596
		c-0.953-0.132-2.039-0.22-3.299-0.22h-6.983v25.098h3.873V124.688z M492.749,128.645c0,1.23,0.357,2.373,0.991,3.436
		c0.683,1.065,1.612,1.804,2.866,2.274c1.231,0.437,2.764,0.699,4.61,0.699c1.908,0,3.478-0.287,4.643-0.935
		c1.208-0.634,2.106-1.546,2.806-2.739c0.658-1.218,0.972-2.425,0.972-3.745c0-0.69-0.103-1.4-0.3-2.04
		c-0.211-0.619-0.53-1.268-0.926-1.852c-0.419-0.611-1.024-1.207-1.823-1.753c-0.799-0.611-1.805-1.103-2.998-1.657l-1.438-0.641
		c-0.668-0.295-1.325-0.596-1.843-0.818c-0.531-0.295-0.939-0.487-1.198-0.686c-0.526-0.348-0.954-0.827-1.297-1.32
		c-0.319-0.586-0.475-1.143-0.475-1.753c0-0.891,0.324-1.657,0.986-2.4c0.648-0.671,1.683-1.04,3.126-1.04
		c0.672,0,1.334,0.067,1.95,0.222c0.545,0.197,0.916,0.427,1.193,0.728c0.281,0.287,0.391,0.622,0.391,0.935v0.569h3.82v-0.569
		c0-1.349-0.546-2.534-1.608-3.557c-0.573-0.502-1.287-0.855-2.212-1.142c-0.89-0.23-1.965-0.377-3.29-0.377
		c-2.787,0-4.863,0.693-6.218,2.025c-1.348,1.387-2.021,2.986-2.021,4.917c0,1.117,0.203,2.115,0.673,3.01
		c0.408,0.871,1.058,1.674,1.955,2.45c0.864,0.713,2.143,1.4,3.82,2.157l1.278,0.54c0.77,0.287,1.46,0.625,2.015,0.962
		c0.573,0.339,1.039,0.649,1.495,0.973c0.311,0.297,0.583,0.648,0.724,1.01c0.179,0.415,0.306,0.856,0.306,1.283
		c0,0.625-0.127,1.172-0.343,1.651c-0.17,0.456-0.504,0.935-0.907,1.31l0,0c-0.423,0.362-0.889,0.648-1.414,0.818
		c-0.513,0.178-1.105,0.259-1.763,0.259c-0.715,0-1.391-0.052-1.997-0.169c-0.555-0.132-1.071-0.324-1.519-0.546
		c-0.784-0.479-1.193-1.297-1.193-2.49v-0.531h-3.839V128.645z M475.461,129.162c-1.17-1.799-1.734-4.277-1.734-7.392
		c0-3.125,0.564-5.551,1.734-7.369c1.142-1.814,2.702-2.726,4.751-2.726c2.053,0,3.632,0.912,4.778,2.726
		c1.181,1.818,1.776,4.281,1.776,7.369c0,3.074-0.596,5.541-1.776,7.392c-1.146,1.753-2.744,2.688-4.778,2.688
		C478.182,131.85,476.603,130.915,475.461,129.162 M487.787,131.591c1.912-2.312,2.917-5.555,2.917-9.821
		c0-4.253-1.005-7.523-2.917-9.808c-1.979-2.32-4.483-3.478-7.575-3.478c-3.073,0-5.611,1.157-7.57,3.478
		c-1.918,2.285-2.891,5.555-2.891,9.808c0,4.266,0.973,7.509,2.891,9.821c1.959,2.293,4.497,3.462,7.57,3.462
		C483.304,135.053,485.809,133.884,487.787,131.591 M453.074,123.222h10.178v11.091h3.84v-25.098h-3.84v10.844h-10.178v-10.844
		h-3.825v25.098h3.825V123.222z M420.287,129.852c0,1.038,0.264,1.946,0.86,2.801c0.583,0.831,1.386,1.465,2.448,1.827
		c1.091,0.406,2.458,0.573,4.021,0.573c1.702,0,3.084-0.262,4.062-0.741c1.062-0.519,1.855-1.255,2.452-2.232
		c0.569-0.973,0.846-1.983,0.846-3.032c0-0.573-0.061-1.132-0.276-1.636c-0.174-0.521-0.429-1.038-0.789-1.517
		c-0.339-0.521-0.852-0.95-1.584-1.415c-0.701-0.479-1.599-0.92-2.632-1.349l-1.245-0.494c-0.606-0.31-1.119-0.506-1.57-0.728
		c-0.47-0.192-0.826-0.362-1.052-0.531c-0.479-0.243-0.855-0.619-1.142-1.046c-0.264-0.457-0.442-0.913-0.442-1.429
		c0-0.701,0.314-1.362,0.897-1.908c0.563-0.583,1.452-0.87,2.664-0.87c0.645,0,1.218,0.067,1.729,0.222
		c0.484,0.103,0.809,0.31,1.054,0.521c0.221,0.282,0.361,0.531,0.361,0.803v0.429h3.321v-0.429c0-1.127-0.479-2.075-1.437-2.908
		c-0.484-0.362-1.105-0.724-1.857-0.92c-0.816-0.192-1.766-0.31-2.904-0.31c-2.433,0-4.247,0.582-5.422,1.619
		c-1.18,1.105-1.767,2.469-1.767,4.009c0,0.897,0.211,1.726,0.573,2.439c0.356,0.687,0.921,1.35,1.729,1.983
		c0.709,0.573,1.851,1.143,3.326,1.739l1.104,0.404c0.664,0.31,1.232,0.531,1.776,0.78c0.49,0.283,0.897,0.582,1.26,0.827
		c0.324,0.234,0.546,0.531,0.673,0.845c0.16,0.324,0.23,0.648,0.23,1.01c0,0.509-0.07,0.946-0.249,1.32
		c-0.207,0.406-0.461,0.757-0.837,1.082l0,0c-0.361,0.282-0.775,0.489-1.231,0.648c-0.441,0.155-0.958,0.245-1.498,0.245
		c-0.668,0-1.265-0.08-1.749-0.184c-0.512-0.075-0.954-0.257-1.344-0.427c-0.695-0.347-1.053-1.075-1.053-2.021v-0.404h-3.309
		V129.852z M417.295,108.536h-5.023l1.188,10.367h2.707L417.295,108.536z M402.896,122.573l7.938-13.359h-3.891l-5.658,9.467
		l-5.72-9.467h-4.501c0.648,1.061,1.329,2.18,1.992,3.27c0.653,1.166,1.368,2.278,2.035,3.41c0.695,1.128,1.362,2.27,2.039,3.398
		c0.639,1.101,1.339,2.218,1.959,3.281v11.739h3.807V122.573z M378.521,112.405h2.852c1.34,0,2.299,0.182,2.815,0.573
		c0.535,0.362,0.963,0.827,1.24,1.333c0.287,0.598,0.433,1.217,0.433,1.881c0,0.818-0.178,1.596-0.583,2.32
		c-0.328,0.715-0.817,1.232-1.424,1.598c-0.605,0.362-1.518,0.532-2.688,0.532h-2.646V112.405z M378.521,123.855h2.594
		c0.582,0.536,1.085,1.143,1.598,1.768c0.512,0.713,0.959,1.385,1.33,2.086l3.379,6.603h4.407l-4.093-7.716
		c-0.146-0.302-0.296-0.532-0.433-0.833c-0.197-0.297-0.361-0.569-0.521-0.879c-0.207-0.287-0.386-0.559-0.563-0.78
		c-0.16-0.249-0.306-0.404-0.434-0.521c-0.089-0.127-0.183-0.207-0.271-0.268c-0.085-0.094-0.207-0.161-0.338-0.272
		c0.54-0.236,0.99-0.508,1.428-0.78c0.428-0.312,0.737-0.611,1.039-0.923c0.324-0.352,0.602-0.766,0.869-1.155
		c0.249-0.441,0.479-0.879,0.672-1.312c0.207-0.479,0.361-0.958,0.441-1.438c0.118-0.441,0.169-0.973,0.169-1.414
		c0-1.26-0.3-2.439-0.854-3.5c-0.264-0.523-0.563-1.01-0.973-1.443c-0.399-0.375-0.86-0.737-1.33-1.023
		c-0.471-0.245-1.085-0.466-1.8-0.621c-0.709-0.132-1.518-0.22-2.448-0.22h-7.721v25.098h3.854V123.855z M361.722,114.556
		c0.301,0.871,0.625,1.726,0.921,2.594c0.314,0.795,0.625,1.599,0.922,2.387c0.271,0.795,0.545,1.599,0.863,2.373
		c0.287,0.81,0.564,1.651,0.954,2.534h-7.589L361.722,114.556z M356.586,127.605h9.952l2.477,6.708h4.135l-9.261-25.098h-3.624
		l-10.085,25.098h3.671L356.586,127.605z M331.031,119.397l-0.052-1.96l0.715,2.101l4.693,11.133h3.581l4.347-11.104
		c0.122-0.406,0.255-0.805,0.428-1.18c0.104-0.418,0.287-0.845,0.413-1.237l-0.056,2.285v14.878h3.497v-25.098h-3.614
		c-0.546,1.414-1.096,2.852-1.626,4.243c-0.56,1.348-1.109,2.762-1.649,4.164c-0.555,1.385-1.091,2.75-1.622,4.149
		c-0.559,1.429-1.1,2.829-1.653,4.201l-7.115-16.756h-3.664v25.098h3.378V119.397z M314.146,129.463h-4.718v4.85h4.718V129.463z
		 M306.719,130.979c-1.416,0.441-2.393,0.687-2.891,0.687c-0.645,0-1.152-0.117-1.588-0.362c-0.452-0.287-0.78-0.634-0.979-1.155
		c-0.089-0.274-0.164-0.686-0.216-1.165c-0.052-0.546-0.099-1.172-0.099-1.896v-7.691h4.953v-3.153h-4.953v-4.084h-3.525v4.084
		h-2.955v3.153h2.955v8.52c0,1.894,0.221,3.285,0.701,4.126c0.455,0.906,1.169,1.596,2.058,2.038
		c0.888,0.481,1.893,0.711,3.03,0.711c0.361,0,0.865-0.025,1.41-0.113c0.588-0.132,1.278-0.287,2.097-0.494V130.979z
		 M276.465,128.645c0,1.23,0.333,2.373,0.973,3.436c0.662,1.065,1.611,1.804,2.866,2.274c1.231,0.437,2.787,0.699,4.591,0.699
		c1.945,0,3.515-0.287,4.672-0.935c1.192-0.634,2.104-1.546,2.786-2.739c0.682-1.218,0.987-2.425,0.987-3.745
		c0-0.69-0.104-1.4-0.305-2.04c-0.207-0.619-0.513-1.268-0.907-1.852c-0.409-0.611-1.039-1.207-1.838-1.753
		c-0.808-0.611-1.814-1.103-2.983-1.657l-1.458-0.641c-0.676-0.295-1.305-0.596-1.837-0.818c-0.545-0.295-0.912-0.487-1.193-0.686
		c-0.555-0.348-0.973-0.827-1.283-1.32c-0.324-0.586-0.456-1.143-0.456-1.753c0-0.891,0.281-1.657,0.954-2.4
		c0.658-0.671,1.696-1.04,3.121-1.04c0.694,0,1.324,0.067,1.94,0.222c0.549,0.197,0.926,0.427,1.212,0.728
		c0.234,0.287,0.395,0.622,0.395,0.935v0.569h3.82v-0.569c0-1.349-0.545-2.534-1.635-3.557c-0.554-0.502-1.259-0.855-2.185-1.142
		c-0.902-0.23-2.016-0.377-3.298-0.377c-2.806,0-4.874,0.693-6.227,2.025c-1.34,1.387-1.997,2.986-1.997,4.917
		c0,1.117,0.192,2.115,0.634,3.01c0.428,0.871,1.09,1.674,1.969,2.45c0.888,0.713,2.157,1.4,3.863,2.157l1.25,0.54
		c0.767,0.287,1.452,0.625,2.011,0.962c0.598,0.339,1.062,0.649,1.467,0.973c0.342,0.297,0.621,0.648,0.785,1.01
		c0.168,0.415,0.263,0.856,0.263,1.283c0,0.625-0.094,1.172-0.324,1.651c-0.168,0.456-0.502,0.935-0.921,1.31h0.028
		c-0.456,0.362-0.935,0.648-1.442,0.818c-0.517,0.178-1.1,0.259-1.744,0.259c-0.719,0-1.405-0.052-1.969-0.169
		c-0.62-0.132-1.109-0.324-1.55-0.546c-0.828-0.479-1.194-1.297-1.194-2.49v-0.531h-3.839V128.645z M264.163,109.214h-3.821v25.098
		h3.821V109.214z M243.814,129.919c0,1.306,0.47,2.475,1.485,3.538c1.062,1.09,2.795,1.596,5.216,1.596
		c1.443,0,2.618-0.262,3.52-0.741c0.875-0.519,1.593-1.297,2.19-2.308c0.554-1.025,0.845-2.957,0.845-5.668v-17.123h-3.764v17.081
		c0,2.025-0.127,3.335-0.376,3.971c-0.193,0.517-0.536,0.948-1.001,1.178c-0.475,0.287-1.058,0.406-1.584,0.406
		c-0.281,0-0.545-0.029-0.803-0.052c-0.264-0.067-0.526-0.094-0.714-0.169c-0.414-0.184-0.733-0.404-0.926-0.713
		c-0.202-0.297-0.287-0.599-0.287-0.996v-0.471h-3.802V129.919z M242.395,121.51h-8.946v3.178h5.352v6.329
		c-0.799,0.287-1.56,0.532-2.265,0.664c-0.719,0.117-1.363,0.192-1.997,0.192c-1.052,0-2.006-0.23-2.843-0.671
		c-0.818-0.471-1.537-1.12-2.133-2.025c-0.541-0.894-0.997-1.969-1.312-3.258c-0.31-1.23-0.489-2.659-0.489-4.164
		c0-3.213,0.598-5.667,1.776-7.471c1.124-1.724,2.783-2.609,4.981-2.609c0.789,0,1.56,0.161,2.186,0.406
		c0.647,0.243,1.166,0.582,1.527,0.985c0.385,0.429,0.568,0.908,0.568,1.373v0.508h3.595v-0.508c0-0.981-0.371-2.034-1.119-3.021
		c-0.347-0.494-0.77-0.908-1.264-1.27c-0.517-0.389-1.029-0.69-1.631-0.933c-0.592-0.245-1.245-0.392-1.903-0.519
		c-0.681-0.159-1.391-0.211-2.138-0.211c-1.071,0-2.058,0.146-2.989,0.418c-0.939,0.274-1.814,0.649-2.574,1.153
		c-0.79,0.559-1.471,1.193-2.097,1.883c-0.615,0.738-1.127,1.557-1.56,2.5c-0.865,1.78-1.303,4.323-1.303,7.618
		c0,2.89,0.471,5.306,1.363,7.12c0.465,0.935,1.02,1.739,1.607,2.527c0.63,0.701,1.325,1.312,2.068,1.833
		c0.724,0.544,1.645,0.856,2.66,1.143c0.978,0.215,2.11,0.375,3.313,0.375c2.336,0,4.883-0.69,7.565-1.996V121.51z M206.338,134.313
		v-18.094l0.24,0.532l10.987,17.562h3.627v-25.098h-3.595v17.964l-0.207-0.389l-11.038-17.575h-3.605v25.098H206.338z
		 M184.835,129.162c-1.14-1.799-1.753-4.277-1.753-7.392c0-3.125,0.613-5.551,1.753-7.369c1.123-1.814,2.697-2.726,4.764-2.726
		c2.04,0,3.633,0.912,4.784,2.726c1.159,1.818,1.725,4.281,1.725,7.369c0,3.074-0.566,5.541-1.725,7.392
		c-1.165,1.753-2.753,2.688-4.784,2.688C187.556,131.85,185.977,130.915,184.835,129.162 M197.151,131.591
		c1.922-2.312,2.895-5.555,2.895-9.821c0-4.253-0.973-7.523-2.895-9.808c-1.966-2.32-4.478-3.478-7.552-3.478
		c-3.108,0-5.624,1.157-7.579,3.478c-1.908,2.285-2.904,5.555-2.904,9.808c0,4.266,0.996,7.509,2.904,9.821
		c1.955,2.293,4.471,3.462,7.579,3.462C192.673,135.053,195.185,133.884,197.151,131.591 M170.822,122.573l7.895-13.359h-3.863
		l-5.65,9.467l-5.736-9.467h-4.492c0.658,1.061,1.297,2.18,1.979,3.27c0.667,1.166,1.344,2.278,2.025,3.41
		c0.719,1.128,1.379,2.27,2.054,3.398c0.667,1.101,1.33,2.218,1.952,3.281v11.739h3.837V122.573z M140.057,119.397l-0.038-1.96
		l0.766,2.101l4.648,11.133h3.606l4.326-11.104c0.125-0.406,0.271-0.805,0.409-1.18c0.153-0.418,0.282-0.845,0.438-1.237
		l-0.021,2.285v14.878h3.466v-25.098h-3.6c-0.581,1.414-1.146,2.852-1.659,4.243c-0.545,1.348-1.081,2.762-1.64,4.164
		c-0.524,1.385-1.079,2.75-1.612,4.149c-0.536,1.429-1.097,2.829-1.651,4.201l-7.118-16.756h-3.682v25.098h3.362V119.397z"/>
	<path fill="#349FC4" d="M540.663,18.805c0.487-1.268,1.234-2.282,2.154-3.218c0.908-0.912,1.998-1.632,3.276-2.153
		c1.283-0.513,2.687-0.789,4.206-0.789c1.429,0,2.74,0.276,3.994,0.789c1.24,0.521,2.368,1.241,3.308,2.153
		c0.92,0.936,1.665,1.95,2.238,3.218c0.54,1.199,0.826,2.496,0.826,3.846c0,1.423-0.286,2.739-0.826,3.867
		c-0.573,1.188-1.318,2.203-2.238,3.115c-0.939,0.841-2.067,1.542-3.308,2.036c-1.254,0.513-2.565,0.724-3.994,0.724
		c-1.52,0-2.923-0.211-4.206-0.724c-1.278-0.494-2.368-1.195-3.276-2.036c-0.92-0.912-1.667-1.927-2.154-3.115
		c-0.547-1.128-0.796-2.444-0.796-3.867C539.867,21.301,540.116,20.004,540.663,18.805 M545.83,63.382h10.608v-9.384h20.248v-9.191
		h-52.768v9.191h21.911V63.382z M551.027,65.041h-10.691v7.626c0,3.601,0.236,6.49,0.716,8.7c0.489,2.138,1.348,3.825,2.613,4.952
		c1.253,1.113,2.941,1.841,5.065,2.218c2.167,0.31,4.892,0.508,8.274,0.508h38.008v-9.3h-38.279c-1.283,0-2.308-0.117-3.055-0.316
		c-0.734-0.22-1.287-0.596-1.679-1.098c-0.403-0.546-0.648-1.208-0.797-1.988c-0.086-0.818-0.176-1.791-0.176-2.933V65.041z
		 M572.188,25.31v9.112h11.099v32.26h10.729V4.99h-10.729v20.32H572.188z M532.208,29.844c1.011,2.18,2.382,4.14,4.201,5.804
		c1.762,1.645,3.82,2.908,6.188,3.839c2.373,0.916,4.982,1.399,7.702,1.399c2.749,0,5.318-0.483,7.707-1.399
		c2.373-0.931,4.481-2.195,6.292-3.839c1.762-1.664,3.172-3.624,4.187-5.804c1-2.203,1.504-4.595,1.504-7.193
		c0-2.534-0.504-4.986-1.504-7.237c-1.015-2.255-2.425-4.239-4.187-5.87c-1.811-1.678-3.919-2.984-6.292-3.938
		c-2.389-0.959-4.958-1.373-7.707-1.373c-2.72,0-5.329,0.414-7.702,1.373c-2.368,0.953-4.427,2.26-6.188,3.938
		c-1.819,1.631-3.19,3.615-4.201,5.87c-1.001,2.251-1.509,4.703-1.509,7.237C530.699,25.249,531.207,27.641,532.208,29.844
		 M461.359,40.577c-1.171,0-2.093-0.065-2.741-0.239c-0.7-0.117-1.179-0.391-1.56-0.81c-0.385-0.389-0.62-0.973-0.715-1.701
		c-0.136-0.737-0.23-1.724-0.23-2.923v-5.898h19.348v11.57H461.359z M484.361,64.581c1.955-1.843,4.454-2.764,7.509-2.764
		c1.485,0,2.862,0.249,4.106,0.743c1.298,0.494,2.412,1.161,3.323,2.067c0.958,0.893,1.71,1.979,2.255,3.209
		c0.551,1.266,0.855,2.646,0.855,4.178c0,3.251-1.052,5.77-3.11,7.561c-2.025,1.791-4.512,2.618-7.43,2.618
		c-2.989,0-5.479-0.827-7.49-2.618c-1.969-1.791-2.951-4.31-2.951-7.561C481.429,68.895,482.411,66.399,484.361,64.581
		 M489.399,20.836h13.476v9.892h-13.476v9.313h13.476v12.114h10.738V4.99h-10.738v6.448h-13.476V20.836z M472.617,79.745
		c1.033,2.331,2.515,4.341,4.356,6.042c1.847,1.739,4.036,3.059,6.616,3.944c2.506,0.958,5.291,1.414,8.28,1.414
		c2.918,0,5.69-0.456,8.232-1.414c2.557-0.885,4.774-2.205,6.668-3.944c1.833-1.701,3.296-3.711,4.386-6.042
		c1.047-2.35,1.606-4.906,1.606-7.795c0-2.848-0.56-5.434-1.606-7.746c-1.09-2.32-2.553-4.346-4.386-6.011
		c-1.894-1.691-4.111-3.011-6.668-3.942c-2.542-0.864-5.314-1.32-8.232-1.32c-2.989,0-5.774,0.456-8.28,1.32
		c-2.58,0.931-4.77,2.251-6.616,3.942c-1.842,1.665-3.323,3.69-4.356,6.011c-1.024,2.312-1.546,4.898-1.546,7.746
		C471.071,74.839,471.593,77.396,472.617,79.745 M456.113,5.573H445.61v30.501c0,2.755,0.283,5.061,0.843,6.844
		c0.517,1.818,1.399,3.27,2.561,4.308c1.198,1.124,2.769,1.837,4.741,2.274c1.945,0.438,4.384,0.648,7.231,0.648h25.109V5.573
		h-10.635v14.065h-19.348V5.573z M418.676,16.236V35.44h-30.207c-1.555,0-2.48-0.211-2.813-0.699
		c-0.349-0.479-0.504-1.383-0.504-2.835v-15.67H418.676z M374.424,6.949v25.748c0,2.448,0.206,4.425,0.597,6.015
		c0.414,1.555,1.043,2.766,1.978,3.735c0.907,0.908,2.115,1.542,3.605,1.885c1.499,0.32,3.313,0.475,5.544,0.475h10.456v16.765
		h-32.142v9.262h74.993v-9.262h-32.124V44.807h21.988V6.949H374.424z M326.322,64.581c1.975-1.843,4.479-2.764,7.515-2.764
		c1.484,0,2.856,0.249,4.121,0.743c1.292,0.494,2.415,1.161,3.359,2.067c0.931,0.893,1.678,1.979,2.261,3.209
		c0.531,1.266,0.794,2.646,0.794,4.178c0,3.251-1.015,5.77-3.055,7.561c-2.067,1.791-4.529,2.618-7.48,2.618
		c-2.993,0-5.475-0.827-7.434-2.618c-1.997-1.791-2.998-4.31-2.998-7.561C323.405,68.895,324.378,66.399,326.322,64.581
		 M328.142,28.655h17.641v22.876h10.699V4.99h-10.699v14.38h-17.641V28.655z M306.116,5.197c-0.15,4.412-0.78,8.467-1.941,12.231
		c-1.15,3.737-2.715,7.229-4.675,10.423c-1.96,3.232-4.295,6.254-7.044,9.126c-2.668,2.843-5.695,5.616-8.989,8.308l7.33,7.367
		c3.793-3.086,7.129-6.25,10.052-9.538c2.876-3.281,5.386-6.668,7.552-10.146c1.442,1.705,3.072,3.41,4.783,5.183
		c1.753,1.734,3.506,3.408,5.32,4.963c1.79,1.538,3.533,2.964,5.216,4.187c1.683,1.226,3.176,2.176,4.543,2.847l6.144-7.909
		c-1.025-0.521-2.491-1.354-4.32-2.667c-1.823-1.278-3.792-2.774-5.854-4.555c-2.082-1.724-4.093-3.68-6.118-5.785
		c-1.97-2.104-3.567-4.281-4.761-6.457c1.975-5.398,3.088-10.976,3.275-16.634L306.116,5.197z M314.599,79.745
		c1.038,2.331,2.49,4.341,4.379,6.042c1.861,1.739,4.051,3.059,6.569,3.944c2.557,0.958,5.297,1.414,8.29,1.414
		c2.951,0,5.69-0.456,8.247-1.414c2.556-0.885,4.788-2.205,6.663-3.944c1.852-1.701,3.337-3.711,4.384-6.042
		c1.081-2.35,1.612-4.906,1.612-7.795c0-2.848-0.531-5.434-1.612-7.746c-1.047-2.32-2.532-4.346-4.384-6.011
		c-1.875-1.691-4.107-3.011-6.663-3.942c-2.557-0.864-5.296-1.32-8.247-1.32c-2.993,0-5.733,0.456-8.29,1.32
		c-2.519,0.931-4.708,2.251-6.569,3.942c-1.889,1.665-3.341,3.69-4.379,6.011c-1.02,2.312-1.57,4.898-1.57,7.746
		C313.028,74.839,313.579,77.396,314.599,79.745 M263.753,72.766H274.5V4.99h-10.747V72.766z M208.086,8.148v9.28h24.831
		c1.748,0,2.42,0.86,1.979,2.571c-0.531,2.274-1.641,4.915-3.266,7.871c-1.664,3.044-3.777,6.174-6.349,9.511
		c-2.631,3.293-5.695,6.691-9.182,10.141c-3.524,3.454-7.377,6.818-11.593,9.99l6.776,7.988c3.675-2.942,7.181-6.057,10.549-9.319
		c3.351-3.274,6.466-6.683,9.333-10.168c1.293,1.667,2.801,3.417,4.54,5.295c1.729,1.856,3.496,3.685,5.258,5.404
		c1.776,1.758,3.435,3.379,5.042,4.858c1.58,1.534,2.9,2.718,3.934,3.666l7.054-8.101c-1.02-0.822-2.481-2.011-4.253-3.659
		c-1.799-1.595-3.655-3.329-5.578-5.231c-1.941-1.843-3.787-3.764-5.535-5.664c-1.782-1.935-3.111-3.641-4.06-5.099
		c2.307-3.584,4.196-7.057,5.587-10.451c1.39-3.41,2.246-6.62,2.49-9.605c0.179-3.13-0.502-5.479-2.063-6.964
		c-1.555-1.55-4.13-2.316-7.645-2.316H208.086z M166.029,64.581c1.974-1.843,4.474-2.764,7.51-2.764c1.484,0,2.846,0.249,4.13,0.743
		c1.286,0.494,2.406,1.161,3.36,2.067c0.926,0.893,1.682,1.979,2.227,3.209c0.555,1.266,0.822,2.646,0.822,4.178
		c0,3.251-1.031,5.77-3.049,7.561c-2.061,1.791-4.573,2.618-7.49,2.618c-2.984,0-5.47-0.827-7.448-2.618
		c-2.004-1.791-2.984-4.31-2.984-7.561C163.106,68.895,164.05,66.399,166.029,64.581 M158.153,16.522v23.519h-15.752
		c-1.343,0-2.236-0.207-2.706-0.657c-0.438-0.442-0.658-1.302-0.658-2.628V16.522H158.153z M171.997,20.836h13.49v9.892h-13.49
		v9.313h13.49v11.555h10.704V4.99h-10.704v6.448h-13.49V20.836z M154.286,79.745c1.054,2.331,2.518,4.341,4.37,6.042
		c1.88,1.739,4.082,3.059,6.612,3.944c2.537,0.958,5.286,1.414,8.271,1.414c2.917,0,5.669-0.456,8.245-1.414
		c2.549-0.885,4.788-2.205,6.647-3.944c1.856-1.701,3.317-3.711,4.379-6.042c1.091-2.35,1.612-4.906,1.612-7.795
		c0-2.848-0.521-5.434-1.612-7.746c-1.062-2.32-2.523-4.346-4.379-6.011c-1.859-1.691-4.098-3.011-6.647-3.942
		c-2.576-0.864-5.327-1.32-8.245-1.32c-2.984,0-5.734,0.456-8.271,1.32c-2.531,0.931-4.732,2.251-6.612,3.942
		c-1.852,1.665-3.315,3.69-4.37,6.011c-1.016,2.312-1.527,4.898-1.527,7.746C152.759,74.839,153.27,77.396,154.286,79.745
		 M128.309,7.143v30.149c0,2.262,0.202,4.14,0.62,5.701c0.418,1.527,1.109,2.768,2.058,3.716c0.959,0.917,2.191,1.64,3.731,2.073
		c1.503,0.404,3.36,0.624,5.574,0.624h28.399V7.143H128.309z"/>
</g>
</svg>
