<svg xmlns="http://www.w3.org/2000/svg" xmlns:xlink="http://www.w3.org/1999/xlink" width="250" height="44.578" viewBox="0 0 250 44.578">
  <defs>
    <clipPath id="clip-path">
      <rect id="사각형_105" data-name="사각형 105" width="250" height="44.578" transform="translate(0 0)" fill="#fff"/>
    </clipPath>
  </defs>
  <g id="그룹_298" data-name="그룹 298" transform="translate(0 0)" clip-path="url(#clip-path)">
    <path id="패스_175" data-name="패스 175" d="M20.484,37.215c1.569-2.838,5.008-8.142,11.13-10.094a12.029,12.029,0,0,1,3.54-.628h14.1V23.329H36.95a15.419,15.419,0,0,0-4.719.48l-.253.078a15.091,15.091,0,0,0-8.7,6.942,26.653,26.653,0,0,0-2.924,6.315.077.077,0,0,0,.04.091.065.065,0,0,0,.087-.019" transform="translate(-4.874 -5.586)" fill="#fff"/>
    <path id="패스_176" data-name="패스 176" d="M20.578,48.387c1.717-2.927,4.534-7.911,11.229-9.979a11.158,11.158,0,0,1,3.356-.544h9.061A4.68,4.68,0,0,0,49.038,34.7H36.959a16.378,16.378,0,0,0-4.647.432A16.079,16.079,0,0,0,23.29,42.2a27.191,27.191,0,0,0-2.852,6.033c-.019.07-.1.222.011.25.068.019.1-.049.129-.094" transform="translate(-4.883 -8.308)" fill="#fff"/>
    <path id="패스_177" data-name="패스 177" d="M20.423,0h8.5V15.457a16.212,16.212,0,0,0-11.01,7.624,21.266,21.266,0,0,0-2.476,5.881H0V21.615a6.14,6.14,0,0,1,6.012-6.16h9.556V4.819A4.818,4.818,0,0,1,20.3,0Z" fill="#fff"/>
    <path id="패스_178" data-name="패스 178" d="M29.037,54.6h.017l.258-.009A4.541,4.541,0,0,0,33.8,49.834l0-.148v-1.44l0-6.394c-7.56,1.539-13.329,8.2-13.326,12.748h8.567Z" transform="translate(-4.902 -10.022)" fill="#fff"/>
    <path id="패스_179" data-name="패스 179" d="M49.268,31.117V29.009H36.828a13.466,13.466,0,0,0-4.863.553,15.031,15.031,0,0,0-8.675,6.949A26.892,26.892,0,0,0,20.436,42.4a1.323,1.323,0,0,0-.043.16.064.064,0,0,1,0,.014c0,.069.051.12.112.081a.365.365,0,0,0,.1-.128c1.729-2.933,4.951-7.62,10.593-9.63l.068-.028a13.094,13.094,0,0,1,3.649-.618l14-.071h.338s.007-.281.013-.508c0-.062,0-.126,0-.19v-.087c0-.093,0-.186,0-.276" transform="translate(-4.883 -6.944)" fill="#fff"/>
    <path id="패스_180" data-name="패스 180" d="M96.55,7.468a.83.83,0,0,0-.926-.837H91.1L92.169,8.4V25.294l3.009-.981A1.928,1.928,0,0,0,96.55,22.2V17.287h4.887v-2.9H96.55ZM103.893,23.7h7.533v4.412h-5.547L106.626,31h19.74V41.687l3.011-.98a1.957,1.957,0,0,0,1.374-2.119V29.163c0-.719-.422-1.052-1.206-1.052H126.6V23.7h7.753V20.808H103.141Zm11.455,0h7.37v4.413h-7.37Zm3.857-3.885c5.824,0,9.448-3.2,9.448-7.155s-3.624-7.145-9.448-7.145-9.458,3.2-9.458,7.145,3.625,7.155,9.458,7.155m0-11.658a4.767,4.767,0,0,1,5,4.5,5.036,5.036,0,0,1-10.016,0,4.777,4.777,0,0,1,5.017-4.5M79.346,18.239a19.913,19.913,0,0,0,8.975,7.114l1.545-2.285c-3.772-2.022-8.436-5.049-8.436-13.253V8.339a.839.839,0,0,0-.928-.834H75.981l1.056,1.776v.534c0,8.9-4.658,11.231-8.424,13.253l1.539,2.285c3.047-1.325,6.875-3.255,9.193-7.114m16.008,8.619H74.377l1.071,1.771v9.13c0,1.58,1.138,2.46,2.757,2.46H96.55V27.911c0-.714-.418-1.053-1.2-1.053M92.169,37.314H79.829V29.759h12.34Zm156.98-18.58c5.382,0,8.734-2.955,8.734-6.616,0-3.645-3.352-6.6-8.734-6.6s-8.742,2.959-8.742,6.6c0,3.661,3.352,6.616,8.742,6.616m0-10.776a4.4,4.4,0,0,1,4.62,4.16,4.654,4.654,0,0,1-9.257,0,4.414,4.414,0,0,1,4.637-4.16M247.472,37.31V30.384a.84.84,0,0,0-.925-.846h-4.522l1.067,1.765v6.449c0,1.578,1.141,2.461,2.759,2.461h20.58v-2.9Zm.157-8.413h3.886v-5.35h4.455a14.636,14.636,0,0,0,5.488-.893c.176-.045.348-.093.513-.144v3h-7.183v2.873h7.183v3.761l3.013-.986a1.935,1.935,0,0,0,1.375-2.109V7.468a.833.833,0,0,0-.934-.837h-4.518L261.971,8.4V19.437a10.92,10.92,0,0,1-2.179.784,57.4,57.4,0,0,1-6.83.43H237.452l.745,2.9h9.433ZM165.359,6.631h-4.528L161.9,8.4v6.088H155.5v2.968H161.9V41.419l3.009-.98a1.93,1.93,0,0,0,1.372-2.114V7.468a.83.83,0,0,0-.927-.837m66.806,0h-4.528L228.711,8.4v2.927h-6.6V7.473h-3.73v4.893h-8.719V7.485h-3.733V21.222a3.28,3.28,0,0,0,.611,2.222,2.776,2.776,0,0,0,2.136.68h13.434V19.985h6.6v5.774l3.009-.98a1.931,1.931,0,0,0,1.371-2.114V7.468a.83.83,0,0,0-.926-.837M218.38,21h-8.719V15.448h8.719Zm10.331-3.984h-6.6V14.294h6.6ZM186.232,19.9c5.827,0,9.448-3.165,9.448-7.08s-3.622-7.071-9.448-7.071-9.457,3.168-9.457,7.071,3.624,7.08,9.457,7.08m0-11.537a4.746,4.746,0,0,1,5,4.458,5.041,5.041,0,0,1-10.016,0,4.758,4.758,0,0,1,5.016-4.458m36.674,17.551c-6.186,0-10.031,3.362-10.031,7.5s3.845,7.51,10.031,7.51,10.024-3.356,10.024-7.51-3.843-7.5-10.024-7.5m0,12.236a5.048,5.048,0,0,1-5.321-4.736c0-2.615,2.381-4.727,5.321-4.727a5.035,5.035,0,0,1,5.306,4.727,5.037,5.037,0,0,1-5.306,4.736m-51.987-13.93h13.814v2.661H174.421l.752,2.892h17.194v2.242H175.173v5.853c0,1.58,1.142,2.46,2.755,2.46H197.32v-2.9H179.556V34.918h17.2V27.936c0-.717-.418-1.053-1.2-1.053h-6.937V24.223H201.38V21.33H170.168Zm-20.2-13.888v-2a.86.86,0,0,0-.966-.834h-4.706l1.1,1.776v1.054c0,10.913-4.85,13.766-8.766,16.247l1.6,2.8c3.167-1.624,7.152-3.99,9.565-8.72a21.633,21.633,0,0,0,9.343,8.72l1.6-2.8c-3.925-2.481-8.778-6.191-8.778-16.247" transform="translate(-16.43 -1.32)" fill="#fff"/>
  </g>
</svg>
